<svg width="223" height="142" viewBox="0 0 223 142" fill="none" xmlns="http://www.w3.org/2000/svg">
<path d="M154.61 78.8633H119.21L112.41 95.1633H94.3101L128.31 18.8633H145.71L179.81 95.1633H161.31L154.61 78.8633ZM149.01 65.4633L136.91 36.2633L124.81 65.4633H149.01Z" fill="url(#paint0_linear_70_25721)"/>
<path d="M188 43.0215H205.6V95.2634H188V43.0215Z" fill="url(#paint1_linear_70_25721)"/>
<path d="M99.9871 118.428C100.887 118.728 101.587 119.228 102.087 119.928C102.687 120.628 102.987 121.428 102.987 122.428C102.987 123.828 102.387 124.928 101.387 125.628C100.287 126.428 98.6871 126.728 96.5871 126.728H88.2871V110.728H96.0871C98.0871 110.728 99.5871 111.128 100.587 111.828C101.587 112.528 102.187 113.628 102.187 114.828C102.187 115.628 101.987 116.328 101.587 116.928C101.187 117.628 100.687 118.128 99.9871 118.428ZM91.8871 113.528V117.328H95.5871C96.4871 117.328 97.1871 117.128 97.6871 116.828C98.1871 116.528 98.3871 116.028 98.3871 115.428C98.3871 114.828 98.1871 114.328 97.6871 114.028C97.1871 113.728 96.4871 113.528 95.5871 113.528H91.8871ZM96.2871 124.028C97.2871 124.028 97.9871 123.828 98.4871 123.528C98.9871 123.228 99.2871 122.728 99.2871 122.028C99.2871 120.728 98.2871 120.028 96.2871 120.028H91.9871V124.028H96.2871Z" fill="url(#paint2_linear_70_25721)"/>
<path d="M116.328 123.328H108.928L107.528 126.728H103.728L110.828 110.728H114.528L121.728 126.728H117.828L116.328 123.328ZM115.128 120.528L112.628 114.428L110.128 120.528H115.128Z" fill="url(#paint3_linear_70_25721)"/>
<path d="M123.285 110.728H126.985V126.728H123.285V110.728Z" fill="url(#paint4_linear_70_25721)"/>
<path d="M130.819 110.728H134.519V123.728H142.519V126.728H130.819V110.728Z" fill="url(#paint5_linear_70_25721)"/>
<path d="M162.855 118.428C163.755 118.728 164.455 119.228 164.955 119.928C165.455 120.628 165.755 121.428 165.755 122.428C165.755 123.828 165.155 124.928 164.155 125.628C163.055 126.428 161.455 126.728 159.355 126.728H151.155V110.728H158.955C160.955 110.728 162.455 111.128 163.455 111.828C164.455 112.528 165.055 113.628 165.055 114.828C165.055 115.628 164.855 116.328 164.455 116.928C164.055 117.628 163.555 118.128 162.855 118.428ZM154.855 113.528V117.328H158.555C159.455 117.328 160.155 117.128 160.655 116.828C161.155 116.528 161.355 116.028 161.355 115.428C161.355 114.828 161.155 114.328 160.655 114.028C160.155 113.728 159.455 113.528 158.555 113.528H154.855ZM159.155 124.028C160.155 124.028 160.855 123.828 161.355 123.528C161.855 123.228 162.155 122.728 162.155 122.028C162.155 120.728 161.155 120.028 159.155 120.028H154.855V124.028H159.155Z" fill="url(#paint6_linear_70_25721)"/>
<path d="M176.396 127.028C174.696 127.028 173.196 126.628 171.896 125.928C170.596 125.228 169.496 124.228 168.796 122.928C167.996 121.628 167.696 120.228 167.696 118.628C167.696 117.028 168.096 115.628 168.796 114.428C169.596 113.128 170.596 112.228 171.896 111.428C173.196 110.728 174.696 110.328 176.396 110.328C178.096 110.328 179.596 110.728 180.896 111.428C182.196 112.128 183.296 113.128 183.996 114.428C184.796 115.628 185.096 117.128 185.096 118.628C185.096 120.228 184.696 121.628 183.996 122.928C183.196 124.128 182.196 125.128 180.896 125.928C179.596 126.728 178.096 127.028 176.396 127.028ZM176.396 123.928C177.296 123.928 178.196 123.728 178.996 123.328C179.796 122.928 180.396 122.228 180.796 121.528C181.196 120.728 181.396 119.828 181.396 118.828C181.396 117.828 181.196 116.928 180.796 116.228C180.396 115.428 179.796 114.828 178.996 114.428C178.196 114.028 177.396 113.728 176.396 113.728C175.496 113.728 174.596 113.928 173.796 114.428C172.996 114.828 172.396 115.428 171.996 116.228C171.596 117.028 171.396 117.928 171.396 118.828C171.396 119.828 171.596 120.728 171.996 121.528C172.396 122.328 172.996 122.928 173.796 123.328C174.596 123.728 175.496 123.928 176.396 123.928Z" fill="url(#paint7_linear_70_25721)"/>
<path d="M202.694 110.728V126.728H199.694L191.694 117.028V126.728H187.994V110.728H191.094L199.094 120.428V110.728H202.694Z" fill="url(#paint8_linear_70_25721)"/>
<path d="M206.473 110.728H213.773C215.473 110.728 217.073 111.028 218.373 111.728C219.673 112.428 220.773 113.328 221.473 114.528C222.273 115.728 222.573 117.128 222.573 118.728C222.573 120.328 222.173 121.728 221.473 122.928C220.773 124.128 219.673 125.028 218.373 125.728C217.073 126.428 215.473 126.728 213.773 126.728H206.473V110.728ZM213.573 123.728C215.173 123.728 216.473 123.328 217.373 122.428C218.373 121.528 218.773 120.328 218.773 118.828C218.773 117.328 218.273 116.128 217.373 115.228C216.373 114.328 215.173 113.928 213.573 113.928H210.173V123.828H213.573V123.728Z" fill="url(#paint9_linear_70_25721)"/>
<path d="M10.5082 59.6208C9.81428 59.1252 8.82294 59.2243 8.32726 59.9182C-2.3793 74.6893 1.78436 90.65 1.8835 91.344C2.08177 92.0379 2.67658 92.5336 3.37052 92.5336C3.46966 92.5336 3.66792 92.5336 3.76705 92.4345C4.56013 92.2362 5.05581 91.344 4.85754 90.5509C4.85754 90.3526 0.991286 75.2841 10.8056 61.8018C11.3013 61.1079 11.2022 60.1165 10.5082 59.6208Z" fill="url(#paint10_linear_70_25721)"/>
<path d="M51.6498 45.1475C28.0557 38.208 12.6898 54.367 12.4916 54.5653C11.8968 55.1601 11.8967 56.1514 12.5907 56.7463C12.8881 57.0437 13.2846 57.1428 13.6812 57.1428C14.0777 57.1428 14.4743 56.9445 14.7717 56.6471C15.3665 56.0523 29.0471 41.7769 50.7576 48.1215C51.5507 48.3198 52.4429 47.9233 52.6412 47.0311C52.9386 46.238 52.4429 45.3458 51.6498 45.1475Z" fill="url(#paint11_linear_70_25721)"/>
<path d="M75.541 94.1196C75.6401 94.1196 75.7392 94.1196 75.9375 94.1196C76.6315 94.1196 77.3254 93.6239 77.4245 92.9299C84.1657 64.1808 61.0673 49.3106 60.7699 49.1124C60.0759 48.6167 59.0846 48.9141 58.5889 49.608C58.0932 50.302 58.3906 51.2933 59.0846 51.789C59.2829 51.8881 80.4977 65.5687 74.3513 92.236C74.2522 93.0291 74.7479 93.9213 75.541 94.1196Z" fill="url(#paint12_linear_70_25721)"/>
<path d="M9.91378 82.2236C10.806 82.2236 11.4999 81.5296 11.4999 80.7365C11.4999 80.5383 12.4913 58.4312 34.6975 54.6641C35.5897 54.5649 36.0854 53.6727 35.9862 52.8796C35.8871 52.0866 35.094 51.4918 34.2018 51.5909C9.51724 55.7546 8.42676 80.34 8.42676 80.6374C8.42676 81.5296 9.1207 82.2236 9.91378 82.2236Z" fill="url(#paint13_linear_70_25721)"/>
<path d="M43.7181 52.384C43.6189 53.2763 44.1146 54.0693 45.0068 54.1685C45.7008 54.2676 61.7606 57.2416 66.5191 73.1032C66.7174 73.7972 67.3122 74.1937 68.0061 74.1937C68.1052 74.1937 68.3035 74.1937 68.4026 74.0946C69.1957 73.8963 69.6914 73.0041 69.4931 72.211C64.1399 54.4659 46.2956 51.1944 45.6016 51.0953C44.7094 50.9961 43.9163 51.591 43.7181 52.384Z" fill="url(#paint14_linear_70_25721)"/>
<path d="M22.6024 70.9228C22.7015 70.8237 28.7487 62.2981 38.0674 61.3068C43.7181 60.7119 49.4679 62.992 55.1186 68.147C55.7134 68.7419 56.7048 68.6427 57.2996 68.0479C57.8944 67.4531 57.7952 66.4618 57.2004 65.867C50.8558 60.1171 44.3129 57.5396 37.6709 58.2336C26.9643 59.4232 20.2231 68.7419 20.0249 69.1384C19.5292 69.8323 19.7275 70.8237 20.4214 71.3194C20.7188 71.5176 21.0162 71.6168 21.3136 71.6168C21.8093 71.5176 22.305 71.3194 22.6024 70.9228Z" fill="url(#paint15_linear_70_25721)"/>
<path d="M20.6204 76.1767C20.9178 75.3836 20.5213 74.4914 19.7282 74.194C18.9352 73.8966 18.0429 74.2931 17.7455 75.0862C16.9525 77.0689 16.5559 79.4481 16.4568 82.323C16.3576 83.9092 16.3576 85.5945 16.4568 87.1806C16.4568 92.4348 16.5559 97.8872 13.7801 102.249C13.0862 103.34 12.194 104.331 11.3018 104.926C10.6078 105.421 10.4095 106.413 10.9052 107.107C11.2026 107.503 11.6983 107.801 12.194 107.801C12.4914 107.801 12.7888 107.702 13.0862 107.503C14.2758 106.71 15.5646 105.322 16.4568 103.835C19.7282 98.6803 19.6291 92.7322 19.6291 87.0815C19.6291 85.4953 19.6291 83.9092 19.6291 82.4221C19.53 79.8446 19.9265 77.8619 20.6204 76.1767Z" fill="url(#paint16_linear_70_25721)"/>
<path d="M7.43535 101.456C7.63362 101.555 7.93102 101.654 8.22843 101.654C8.7241 101.654 9.3189 101.357 9.61631 100.861C12.7886 95.2106 11.4999 87.4781 11.4999 87.1807C11.4007 86.2885 10.5085 85.7928 9.71545 85.8919C8.82324 85.991 8.32756 86.8833 8.42669 87.6763C8.42669 87.7755 9.61631 94.7149 6.93967 99.3742C6.444 100.068 6.64227 101.06 7.43535 101.456Z" fill="url(#paint17_linear_70_25721)"/>
<path d="M36.9778 67.3535C36.7795 66.5604 35.8873 66.0647 34.9951 66.3621C34.5985 66.4613 24.7842 69.5344 23.5946 80.5384C23.5946 80.6375 23.198 86.5856 23.2972 95.5078C23.2972 95.6069 23.2972 95.706 23.2972 95.8052C24.2885 95.4086 25.2799 95.1112 26.3703 95.0121C26.2712 86.4865 26.6678 80.7367 26.6678 80.7367C27.56 71.9137 35.4907 69.3362 35.8873 69.237C36.7795 69.0388 37.176 68.2457 36.9778 67.3535Z" fill="url(#paint18_linear_70_25721)"/>
<path d="M53.6328 96.3998C54.4258 96.3998 55.2189 96.5981 56.012 96.7963C56.9042 88.2707 56.4085 80.9348 56.3094 80.5382V80.4391C54.4258 67.155 41.9348 65.7671 41.8357 65.668C40.9435 65.5689 40.2496 66.1637 40.1504 67.0559C40.0513 67.9481 40.6461 68.642 41.5383 68.7412C41.6375 68.7412 51.6501 69.8317 53.2362 80.7365C53.2362 81.3313 53.7319 87.9733 53.0379 95.6067C53.2362 95.9041 53.4345 96.1024 53.6328 96.3998Z" fill="url(#paint19_linear_70_25721)"/>
<path d="M63.2484 99.5722C64.9337 84.3055 63.0501 75.879 62.951 75.3833C62.7527 74.5902 61.9596 73.9954 61.0674 74.1937C60.2743 74.392 59.6795 75.185 59.8778 76.0773C59.8778 76.1764 61.7613 84.3055 60.1752 98.9774C61.2657 98.9774 62.257 99.1757 63.2484 99.5722Z" fill="url(#paint20_linear_70_25721)"/>
<path d="M68.9983 105.62C69.5931 105.521 70.0888 105.025 70.287 104.331C72.0715 94.4174 71.0801 79.6463 71.0801 79.0515C70.981 78.1593 70.287 77.5645 69.3948 77.6636C68.5026 77.7627 67.9078 78.4567 67.9078 79.3489C67.9078 79.448 68.8 93.1286 67.4121 102.646C68.1061 103.439 68.6017 104.43 68.9983 105.62Z" fill="url(#paint21_linear_70_25721)"/>
<path d="M29.7403 121.085C31.3264 125.546 33.1109 128.321 34.5979 130.502C36.5806 133.476 37.9685 135.657 37.9685 140.218C37.9685 140.713 38.365 141.209 38.9598 141.209H58.2911C58.8859 141.209 59.2825 140.812 59.2825 140.218C59.2825 138.631 60.2738 136.748 61.3643 134.567C62.9505 131.494 64.7349 128.024 64.7349 123.96V116.921C64.7349 116.822 64.7349 116.822 64.7349 116.723V107.999C64.7349 105.52 62.5539 103.538 59.9764 103.538C59.1833 103.538 58.4894 103.736 57.7954 104.033C57.7954 103.934 57.6963 103.835 57.5972 103.736C56.9032 102.051 55.2179 100.96 53.2352 100.96C52.5413 100.96 51.8473 101.158 51.2525 101.357C50.856 99.2749 48.8733 97.7879 46.5932 97.7879C45.9984 97.7879 45.3045 97.8871 44.7096 98.0853V78.9523C44.7096 76.3748 42.6278 74.293 40.0503 74.293C37.4728 74.293 35.4901 76.3748 35.4901 78.9523V107.602C34.0031 105.025 32.5161 102.844 30.9299 101.159C30.0377 100.167 28.7489 99.5723 27.3611 99.5723C26.1714 99.5723 25.0809 99.9689 24.2879 100.663C20.1242 104.133 26.3697 111.865 27.7576 115.533C28.2533 117.516 28.9472 119.399 29.7403 121.085Z" fill="url(#paint22_linear_70_25721)"/>
<mask id="mask0_70_25721" style="mask-type:luminance" maskUnits="userSpaceOnUse" x="0" y="0" width="79" height="48">
<path d="M39.5995 47.8491C61.014 47.8491 78.3738 37.1377 78.3738 23.9246C78.3738 10.7114 61.014 0 39.5995 0C18.185 0 0.825195 10.7114 0.825195 23.9246C0.825195 37.1377 18.185 47.8491 39.5995 47.8491Z" fill="white"/>
</mask>
<g mask="url(#mask0_70_25721)">
<mask id="mask1_70_25721" style="mask-type:luminance" maskUnits="userSpaceOnUse" x="18" y="0" width="44" height="54">
<path d="M32.5176 1.62665C34.6986 0.833568 37.2761 0.337891 39.7545 0.337891C42.2329 0.337891 44.6121 0.734427 46.793 1.52751H46.8922C55.1204 4.50155 61.1676 12.5315 61.3659 21.8501V53.5733H18.0439V21.8501C18.1431 12.5315 24.1903 4.60069 32.5176 1.62665Z" fill="white"/>
</mask>
<g mask="url(#mask1_70_25721)">
<path d="M32.5176 1.62665C34.6986 0.833568 37.2761 0.337891 39.7545 0.337891C42.2329 0.337891 44.6121 0.734427 46.793 1.52751H46.8922C55.1204 4.50155 61.1676 12.5315 61.3659 21.8501V53.5733H18.0439V21.8501C18.1431 12.5315 24.1903 4.60069 32.5176 1.62665Z" stroke="url(#paint23_linear_70_25721)" stroke-width="8.24985"/>
</g>
</g>
<path d="M203.802 26.3173H202.605V24.7398C202.605 21.5849 200.018 19.0215 196.904 19.0215C193.743 19.0215 191.204 21.5849 191.204 24.7398V26.3173H190.15C189.527 26.3173 189 26.8595 189 27.5004V38.8384C189 39.4792 189.527 40.0215 190.15 40.0215H203.85C204.473 40.0215 205 39.4792 205 38.8384V27.5004C204.952 26.8102 204.425 26.3173 203.802 26.3173ZM198.102 34.8454C198.102 35.4863 197.575 36.0285 196.952 36.0285C196.329 36.0285 195.802 35.4863 195.802 34.8454V31.3947C195.802 30.7539 196.329 30.2116 196.952 30.2116C197.575 30.2116 198.102 30.7539 198.102 31.3947V34.8454ZM200.353 26.3173H193.407V24.7398C193.407 22.8666 194.94 21.3384 196.856 21.3384C198.772 21.3384 200.305 22.8666 200.305 24.7398V26.3173H200.353Z" fill="#013C93"/>
<defs>
<linearGradient id="paint0_linear_70_25721" x1="137.06" y1="18.8633" x2="137.06" y2="95.1633" gradientUnits="userSpaceOnUse">
<stop offset="0.47" stop-color="#003C93"/>
<stop offset="1" stop-color="#001F73"/>
</linearGradient>
<linearGradient id="paint1_linear_70_25721" x1="196.8" y1="43.0215" x2="196.8" y2="95.2634" gradientUnits="userSpaceOnUse">
<stop offset="0.47" stop-color="#003C93"/>
<stop offset="1" stop-color="#001F73"/>
</linearGradient>
<linearGradient id="paint2_linear_70_25721" x1="95.6371" y1="110.728" x2="95.6371" y2="126.728" gradientUnits="userSpaceOnUse">
<stop offset="0.47" stop-color="#003C93"/>
<stop offset="1" stop-color="#001F73"/>
</linearGradient>
<linearGradient id="paint3_linear_70_25721" x1="112.728" y1="110.728" x2="112.728" y2="126.728" gradientUnits="userSpaceOnUse">
<stop offset="0.47" stop-color="#003C93"/>
<stop offset="1" stop-color="#001F73"/>
</linearGradient>
<linearGradient id="paint4_linear_70_25721" x1="125.135" y1="110.728" x2="125.135" y2="126.728" gradientUnits="userSpaceOnUse">
<stop offset="0.47" stop-color="#003C93"/>
<stop offset="1" stop-color="#001F73"/>
</linearGradient>
<linearGradient id="paint5_linear_70_25721" x1="136.669" y1="110.728" x2="136.669" y2="126.728" gradientUnits="userSpaceOnUse">
<stop offset="0.47" stop-color="#003C93"/>
<stop offset="1" stop-color="#001F73"/>
</linearGradient>
<linearGradient id="paint6_linear_70_25721" x1="158.455" y1="110.728" x2="158.455" y2="126.728" gradientUnits="userSpaceOnUse">
<stop offset="0.47" stop-color="#003C93"/>
<stop offset="1" stop-color="#001F73"/>
</linearGradient>
<linearGradient id="paint7_linear_70_25721" x1="176.396" y1="110.328" x2="176.396" y2="127.028" gradientUnits="userSpaceOnUse">
<stop offset="0.47" stop-color="#003C93"/>
<stop offset="1" stop-color="#001F73"/>
</linearGradient>
<linearGradient id="paint8_linear_70_25721" x1="195.344" y1="110.728" x2="195.344" y2="126.728" gradientUnits="userSpaceOnUse">
<stop offset="0.47" stop-color="#003C93"/>
<stop offset="1" stop-color="#001F73"/>
</linearGradient>
<linearGradient id="paint9_linear_70_25721" x1="214.523" y1="110.728" x2="214.523" y2="126.728" gradientUnits="userSpaceOnUse">
<stop offset="0.47" stop-color="#003C93"/>
<stop offset="1" stop-color="#001F73"/>
</linearGradient>
<linearGradient id="paint10_linear_70_25721" x1="6.06016" y1="59.311" x2="6.06016" y2="92.5336" gradientUnits="userSpaceOnUse">
<stop offset="0.475" stop-color="#003C93"/>
<stop offset="1" stop-color="#001F73"/>
</linearGradient>
<linearGradient id="paint11_linear_70_25721" x1="32.3928" y1="43.417" x2="32.3928" y2="57.1428" gradientUnits="userSpaceOnUse">
<stop offset="0.475" stop-color="#003C93"/>
<stop offset="1" stop-color="#001F73"/>
</linearGradient>
<linearGradient id="paint12_linear_70_25721" x1="68.4998" y1="48.8662" x2="68.4998" y2="94.1196" gradientUnits="userSpaceOnUse">
<stop offset="0.475" stop-color="#003C93"/>
<stop offset="1" stop-color="#001F73"/>
</linearGradient>
<linearGradient id="paint13_linear_70_25721" x1="22.2128" y1="51.5801" x2="22.2128" y2="82.2236" gradientUnits="userSpaceOnUse">
<stop offset="0.475" stop-color="#003C93"/>
<stop offset="1" stop-color="#001F73"/>
</linearGradient>
<linearGradient id="paint14_linear_70_25721" x1="56.6212" y1="51.0845" x2="56.6212" y2="74.1937" gradientUnits="userSpaceOnUse">
<stop offset="0.475" stop-color="#003C93"/>
<stop offset="1" stop-color="#001F73"/>
</linearGradient>
<linearGradient id="paint15_linear_70_25721" x1="38.7243" y1="58.123" x2="38.7243" y2="71.6168" gradientUnits="userSpaceOnUse">
<stop offset="0.475" stop-color="#003C93"/>
<stop offset="1" stop-color="#001F73"/>
</linearGradient>
<linearGradient id="paint16_linear_70_25721" x1="15.6745" y1="74.0952" x2="15.6745" y2="107.801" gradientUnits="userSpaceOnUse">
<stop offset="0.475" stop-color="#003C93"/>
<stop offset="1" stop-color="#001F73"/>
</linearGradient>
<linearGradient id="paint17_linear_70_25721" x1="9.21414" y1="85.8794" x2="9.21414" y2="101.654" gradientUnits="userSpaceOnUse">
<stop offset="0.475" stop-color="#003C93"/>
<stop offset="1" stop-color="#001F73"/>
</linearGradient>
<linearGradient id="paint18_linear_70_25721" x1="30.1545" y1="66.2749" x2="30.1545" y2="95.8052" gradientUnits="userSpaceOnUse">
<stop offset="0.475" stop-color="#003C93"/>
<stop offset="1" stop-color="#001F73"/>
</linearGradient>
<linearGradient id="paint19_linear_70_25721" x1="48.3378" y1="65.6572" x2="48.3378" y2="96.7963" gradientUnits="userSpaceOnUse">
<stop offset="0.475" stop-color="#003C93"/>
<stop offset="1" stop-color="#001F73"/>
</linearGradient>
<linearGradient id="paint20_linear_70_25721" x1="61.8928" y1="74.1553" x2="61.8928" y2="99.5722" gradientUnits="userSpaceOnUse">
<stop offset="0.475" stop-color="#003C93"/>
<stop offset="1" stop-color="#001F73"/>
</linearGradient>
<linearGradient id="paint21_linear_70_25721" x1="69.3834" y1="77.6528" x2="69.3834" y2="105.62" gradientUnits="userSpaceOnUse">
<stop offset="0.475" stop-color="#003C93"/>
<stop offset="1" stop-color="#001F73"/>
</linearGradient>
<linearGradient id="paint22_linear_70_25721" x1="43.8062" y1="74.293" x2="43.8062" y2="141.209" gradientUnits="userSpaceOnUse">
<stop offset="0.475" stop-color="#003C93"/>
<stop offset="1" stop-color="#001F73"/>
</linearGradient>
<linearGradient id="paint23_linear_70_25721" x1="39.7049" y1="0.337891" x2="39.7049" y2="53.5733" gradientUnits="userSpaceOnUse">
<stop offset="0.475" stop-color="#003C93"/>
<stop offset="1" stop-color="#001F73"/>
</linearGradient>
</defs>
</svg>
