<svg width="96" height="172" viewBox="0 0 96 172" fill="none" xmlns="http://www.w3.org/2000/svg">
<path d="M12.7377 72.2696C11.8965 71.6687 10.6949 71.7889 10.094 72.6301C-2.88385 90.5347 2.1631 109.881 2.28327 110.723C2.5236 111.564 3.2446 112.165 4.08575 112.165C4.20592 112.165 4.44624 112.165 4.56641 112.044C5.52773 111.804 6.12857 110.723 5.88824 109.761C5.88824 109.521 1.20178 91.2557 13.0982 74.9132C13.699 74.072 13.5788 72.8704 12.7377 72.2696Z" fill="url(#paint0_linear_66_25419)"/>
<path d="M62.6072 54.7255C34.0078 46.3139 15.3822 65.9009 15.1418 66.1413C14.4208 66.8623 14.4208 68.0639 15.262 68.7849C15.6225 69.1454 16.1032 69.2656 16.5838 69.2656C17.0645 69.2656 17.5451 69.0252 17.9056 68.6648C18.6266 67.9438 35.2095 50.6399 61.5257 58.3305C62.4871 58.5708 63.5686 58.0902 63.8089 57.0087C64.1694 56.0474 63.5686 54.9659 62.6072 54.7255Z" fill="url(#paint1_linear_66_25419)"/>
<path d="M91.5664 114.087C91.6866 114.087 91.8067 114.087 92.0471 114.087C92.8882 114.087 93.7294 113.486 93.8495 112.645C102.021 77.7969 74.0222 59.7721 73.6617 59.5318C72.8206 58.9309 71.6189 59.2914 71.0181 60.1326C70.4173 60.9737 70.7778 62.1754 71.6189 62.7762C71.8592 62.8964 97.5747 79.4793 90.1244 111.804C90.0042 112.765 90.6051 113.847 91.5664 114.087Z" fill="url(#paint2_linear_66_25419)"/>
<path d="M12.0168 99.6672C13.0983 99.6672 13.9395 98.8261 13.9395 97.8648C13.9395 97.6244 15.1411 70.8275 42.0582 66.2612C43.1397 66.141 43.7406 65.0595 43.6204 64.0982C43.5002 63.1369 42.5389 62.4159 41.4574 62.5361C11.5362 67.583 10.2144 97.3841 10.2144 97.7446C10.2144 98.8261 11.0555 99.6672 12.0168 99.6672Z" fill="url(#paint3_linear_66_25419)"/>
<path d="M52.9929 63.4971C52.8728 64.5786 53.4736 65.54 54.5551 65.6601C55.3963 65.7803 74.8631 69.3852 80.631 88.6117C80.8714 89.4529 81.5924 89.9336 82.4335 89.9336C82.5537 89.9336 82.794 89.9336 82.9142 89.8134C83.8755 89.5731 84.4763 88.4916 84.236 87.5303C77.7471 66.0206 56.1172 62.0551 55.2761 61.935C54.1946 61.8148 53.2333 62.5358 52.9929 63.4971Z" fill="url(#paint4_linear_66_25419)"/>
<path d="M27.3975 85.9688C27.5177 85.8486 34.8478 75.5144 46.1434 74.3127C52.9928 73.5917 59.9624 76.3555 66.8118 82.6041C67.5328 83.3251 68.7345 83.205 69.4555 82.484C70.1765 81.763 70.0563 80.5613 69.3353 79.8403C61.6447 72.8707 53.7138 69.7464 45.6627 70.5876C32.6848 72.0296 24.5135 83.3251 24.2732 83.8058C23.6724 84.647 23.9127 85.8486 24.7539 86.4495C25.1144 86.6898 25.4749 86.8099 25.8354 86.8099C26.4362 86.6898 27.037 86.4494 27.3975 85.9688Z" fill="url(#paint5_linear_66_25419)"/>
<path d="M24.9948 92.3375C25.3552 91.3761 24.8746 90.2946 23.9133 89.9341C22.9519 89.5736 21.8705 90.0543 21.51 91.0156C20.5486 93.4189 20.068 96.3029 19.9478 99.7877C19.8276 101.71 19.8276 103.753 19.9478 105.676C19.9478 112.045 20.068 118.654 16.7033 123.941C15.8622 125.263 14.7807 126.464 13.6992 127.185C12.858 127.786 12.6177 128.988 13.2185 129.829C13.579 130.31 14.1798 130.67 14.7807 130.67C15.1412 130.67 15.5017 130.55 15.8622 130.31C17.3041 129.348 18.8663 127.666 19.9478 125.864C23.9133 119.615 23.7931 112.405 23.7931 105.556C23.7931 103.633 23.7931 101.71 23.7931 99.9079C23.6729 96.7836 24.1536 94.3803 24.9948 92.3375Z" fill="url(#paint6_linear_66_25419)"/>
<path d="M9.01287 122.979C9.2532 123.099 9.6137 123.22 9.9742 123.22C10.575 123.22 11.296 122.859 11.6565 122.258C15.5018 115.409 13.9397 106.036 13.9397 105.675C13.8195 104.594 12.738 103.993 11.7767 104.113C10.6952 104.233 10.0944 105.315 10.2145 106.276C10.2145 106.396 11.6565 114.808 8.41204 120.456C7.81121 121.297 8.05154 122.499 9.01287 122.979Z" fill="url(#paint7_linear_66_25419)"/>
<path d="M44.8226 81.6424C44.5823 80.681 43.5008 80.0802 42.4193 80.4407C41.9386 80.5609 30.0422 84.286 28.6002 97.6244C28.6002 97.7445 28.1196 104.954 28.2397 115.769C28.2397 115.89 28.2397 116.01 28.2397 116.13C29.4414 115.649 30.6431 115.289 31.9649 115.169C31.8447 104.834 32.3254 97.8647 32.3254 97.8647C33.4069 87.17 43.0201 84.0457 43.5008 83.9255C44.5823 83.6852 45.0629 82.7239 44.8226 81.6424Z" fill="url(#paint8_linear_66_25419)"/>
<path d="M65.0101 116.851C65.9715 116.851 66.9328 117.091 67.8941 117.331C68.9756 106.997 68.3748 98.105 68.2546 97.6243V97.5042C65.9714 81.402 50.8306 79.7196 50.7104 79.5995C49.6289 79.4793 48.7878 80.2003 48.6676 81.2818C48.5474 82.3633 49.2684 83.2045 50.3499 83.3246C50.4701 83.3246 62.6068 84.6465 64.5295 97.8647C64.5295 98.5857 65.1303 106.637 64.2891 115.89C64.5295 116.25 64.7698 116.49 65.0101 116.851Z" fill="url(#paint9_linear_66_25419)"/>
<path d="M76.6657 120.696C78.7085 102.191 76.4253 91.9766 76.3052 91.3758C76.0648 90.4144 75.1035 89.6935 74.022 89.9338C73.0607 90.1741 72.3397 91.1354 72.58 92.2169C72.58 92.3371 74.8632 102.191 72.9405 119.975C74.2623 119.975 75.464 120.216 76.6657 120.696Z" fill="url(#paint10_linear_66_25419)"/>
<path d="M83.6353 128.026C84.3563 127.906 84.9571 127.305 85.1975 126.464C87.3604 114.448 86.1588 96.5428 86.1588 95.8218C86.0386 94.7403 85.1974 94.0194 84.116 94.1395C83.0345 94.2597 82.3135 95.1009 82.3135 96.1824C82.3135 96.3025 83.395 112.885 81.7126 124.421C82.5538 125.383 83.1546 126.584 83.6353 128.026Z" fill="url(#paint11_linear_66_25419)"/>
<path d="M36.0497 146.772C37.9724 152.179 40.1353 155.544 41.9378 158.188C44.3411 161.793 46.0235 164.436 46.0235 169.964C46.0235 170.565 46.5041 171.165 47.2251 171.165H70.6574C71.3784 171.165 71.8591 170.685 71.8591 169.964C71.8591 168.041 73.0607 165.758 74.3825 163.114C76.3052 159.389 78.4682 155.183 78.4682 150.257V141.725C78.4682 141.605 78.4682 141.605 78.4682 141.485V130.91C78.4682 127.906 75.8245 125.503 72.7002 125.503C71.7389 125.503 70.8977 125.743 70.0566 126.103C70.0566 125.983 69.9364 125.863 69.8162 125.743C68.9751 123.7 66.9323 122.378 64.5289 122.378C63.6878 122.378 62.8466 122.619 62.1256 122.859C61.645 120.335 59.2417 118.533 56.4779 118.533C55.7569 118.533 54.9157 118.653 54.1947 118.893V95.7015C54.1947 92.5772 51.6712 90.0537 48.5469 90.0537C45.4226 90.0537 43.0193 92.5772 43.0193 95.7015V130.429C41.2168 127.305 39.4143 124.661 37.4917 122.619C36.4102 121.417 34.8481 120.696 33.1657 120.696C31.7237 120.696 30.4019 121.177 29.4406 122.018C24.3936 126.224 31.9641 135.596 33.6464 140.043C34.2472 142.446 35.0884 144.729 36.0497 146.772Z" fill="url(#paint12_linear_66_25419)"/>
<mask id="mask0_66_25419" style="mask-type:luminance" maskUnits="userSpaceOnUse" x="1" y="0" width="94" height="58">
<path d="M48 58C73.9574 58 95 45.0163 95 29C95 12.9837 73.9574 0 48 0C22.0426 0 1 12.9837 1 29C1 45.0163 22.0426 58 48 58Z" fill="white"/>
</mask>
<g mask="url(#mask0_66_25419)">
<mask id="mask1_66_25419" style="mask-type:luminance" maskUnits="userSpaceOnUse" x="21" y="0" width="54" height="65">
<path d="M39.416 1.97231C42.0597 1.01099 45.184 0.410156 48.1881 0.410156C51.1922 0.410156 54.0762 0.890815 56.7199 1.85214H56.84C66.8138 5.45711 74.1439 15.1905 74.3842 26.4861V64.9391H21.8718V26.4861C21.992 15.1905 29.3221 5.57728 39.416 1.97231Z" fill="white"/>
</mask>
<g mask="url(#mask1_66_25419)">
<path d="M39.416 1.97231C42.0597 1.01099 45.184 0.410156 48.1881 0.410156C51.1922 0.410156 54.0762 0.890815 56.7199 1.85214H56.84C66.8138 5.45711 74.1439 15.1905 74.3842 26.4861V64.9391H21.8718V26.4861C21.992 15.1905 29.3221 5.57728 39.416 1.97231Z" stroke="url(#paint13_linear_66_25419)" stroke-width="10"/>
</g>
</g>
<defs>
<linearGradient id="paint0_linear_66_25419" x1="7.34598" y1="71.894" x2="7.34598" y2="112.165" gradientUnits="userSpaceOnUse">
<stop offset="0.475" stop-color="#003C93"/>
<stop offset="1" stop-color="#001F73"/>
</linearGradient>
<linearGradient id="paint1_linear_66_25419" x1="39.2649" y1="52.6279" x2="39.2649" y2="69.2656" gradientUnits="userSpaceOnUse">
<stop offset="0.475" stop-color="#003C93"/>
<stop offset="1" stop-color="#001F73"/>
</linearGradient>
<linearGradient id="paint2_linear_66_25419" x1="83.0315" y1="59.2334" x2="83.0315" y2="114.087" gradientUnits="userSpaceOnUse">
<stop offset="0.475" stop-color="#003C93"/>
<stop offset="1" stop-color="#001F73"/>
</linearGradient>
<linearGradient id="paint3_linear_66_25419" x1="26.925" y1="62.5229" x2="26.925" y2="99.6672" gradientUnits="userSpaceOnUse">
<stop offset="0.475" stop-color="#003C93"/>
<stop offset="1" stop-color="#001F73"/>
</linearGradient>
<linearGradient id="paint4_linear_66_25419" x1="68.6334" y1="61.9219" x2="68.6334" y2="89.9336" gradientUnits="userSpaceOnUse">
<stop offset="0.475" stop-color="#003C93"/>
<stop offset="1" stop-color="#001F73"/>
</linearGradient>
<linearGradient id="paint5_linear_66_25419" x1="46.9397" y1="70.4536" x2="46.9397" y2="86.8099" gradientUnits="userSpaceOnUse">
<stop offset="0.475" stop-color="#003C93"/>
<stop offset="1" stop-color="#001F73"/>
</linearGradient>
<linearGradient id="paint6_linear_66_25419" x1="18.9996" y1="89.8145" x2="18.9996" y2="130.67" gradientUnits="userSpaceOnUse">
<stop offset="0.475" stop-color="#003C93"/>
<stop offset="1" stop-color="#001F73"/>
</linearGradient>
<linearGradient id="paint7_linear_66_25419" x1="11.169" y1="104.098" x2="11.169" y2="123.22" gradientUnits="userSpaceOnUse">
<stop offset="0.475" stop-color="#003C93"/>
<stop offset="1" stop-color="#001F73"/>
</linearGradient>
<linearGradient id="paint8_linear_66_25419" x1="36.5519" y1="80.335" x2="36.5519" y2="116.13" gradientUnits="userSpaceOnUse">
<stop offset="0.475" stop-color="#003C93"/>
<stop offset="1" stop-color="#001F73"/>
</linearGradient>
<linearGradient id="paint9_linear_66_25419" x1="58.5919" y1="79.5864" x2="58.5919" y2="117.331" gradientUnits="userSpaceOnUse">
<stop offset="0.475" stop-color="#003C93"/>
<stop offset="1" stop-color="#001F73"/>
</linearGradient>
<linearGradient id="paint10_linear_66_25419" x1="75.0226" y1="89.8872" x2="75.0226" y2="120.696" gradientUnits="userSpaceOnUse">
<stop offset="0.475" stop-color="#003C93"/>
<stop offset="1" stop-color="#001F73"/>
</linearGradient>
<linearGradient id="paint11_linear_66_25419" x1="84.1021" y1="94.1265" x2="84.1021" y2="128.026" gradientUnits="userSpaceOnUse">
<stop offset="0.475" stop-color="#003C93"/>
<stop offset="1" stop-color="#001F73"/>
</linearGradient>
<linearGradient id="paint12_linear_66_25419" x1="53.0996" y1="90.0537" x2="53.0996" y2="171.165" gradientUnits="userSpaceOnUse">
<stop offset="0.475" stop-color="#003C93"/>
<stop offset="1" stop-color="#001F73"/>
</linearGradient>
<linearGradient id="paint13_linear_66_25419" x1="48.128" y1="0.410156" x2="48.128" y2="64.9391" gradientUnits="userSpaceOnUse">
<stop offset="0.475" stop-color="#003C93"/>
<stop offset="1" stop-color="#001F73"/>
</linearGradient>
</defs>
</svg>
