<svg width="430" height="932" viewBox="0 0 430 932" fill="none" xmlns="http://www.w3.org/2000/svg">
<g clip-path="url(#clip0_206_27)">
<rect width="430" height="932" fill="#001F73"/>
<g opacity="0.15">
<path d="M321.171 880.984H294.752L281.44 857.862L294.65 835.046L295.571 835.558L282.669 857.862L295.366 879.961H321.171V880.984Z" fill="url(#paint0_linear_206_27)"/>
<path d="M360.391 903.492H333.767L320.455 880.37L333.767 857.248H360.391L373.703 880.37L360.391 903.492ZM334.381 902.469H359.879L372.576 880.472L359.879 858.475H334.381L321.683 880.472L334.381 902.469Z" fill="url(#paint1_linear_206_27)"/>
<path d="M372.678 925.795L359.673 903.287L360.595 902.673L373.6 925.284L372.678 925.795Z" fill="url(#paint2_linear_206_27)"/>
<path d="M399.609 925.795L398.688 925.284L411.59 902.98L398.585 880.472L399.405 879.96L412.819 902.98L399.609 925.795Z" fill="url(#paint3_linear_206_27)"/>
<path d="M399.405 880.983L398.585 880.472L411.693 857.657L412.614 858.168L399.405 880.983Z" fill="url(#paint4_linear_206_27)"/>
<path d="M440.262 902.469H412.205V903.492H440.262V902.469Z" fill="url(#paint5_linear_206_27)"/>
<path d="M277.037 807.116L289.734 829.215L277.037 851.314H251.539L238.841 829.215L251.539 807.116H277.037ZM277.753 805.99H250.925L237.51 829.215L250.925 852.439H277.753L291.168 829.215L277.753 805.99Z" fill="url(#paint6_linear_206_27)"/>
<path d="M336.121 857.861C336.121 858.782 335.404 859.601 334.38 859.601C333.459 859.601 332.64 858.884 332.64 857.861C332.64 856.941 333.356 856.122 334.38 856.122C335.404 856.122 336.121 856.838 336.121 857.861Z" fill="url(#paint7_linear_206_27)"/>
<path d="M413.945 857.861C413.945 858.782 413.229 859.601 412.205 859.601C411.283 859.601 410.464 858.884 410.464 857.861C410.464 856.941 411.181 856.122 412.205 856.122C413.126 856.122 413.945 856.838 413.945 857.861Z" fill="url(#paint8_linear_206_27)"/>
<path d="M374.829 926.103C374.829 927.023 374.112 927.842 373.088 927.842C372.166 927.842 371.347 927.126 371.347 926.103C371.347 925.182 372.064 924.363 373.088 924.363C374.112 924.466 374.829 925.182 374.829 926.103Z" fill="url(#paint9_linear_206_27)"/>
<path d="M335.814 902.98C335.814 903.901 335.097 904.72 334.073 904.72C333.049 904.72 332.333 904.004 332.333 902.98C332.333 902.06 333.049 901.241 334.073 901.241C335.097 901.241 335.814 902.06 335.814 902.98Z" fill="url(#paint10_linear_206_27)"/>
<path d="M413.945 902.98C413.945 903.901 413.229 904.72 412.205 904.72C411.283 904.72 410.464 904.004 410.464 902.98C410.464 902.06 411.181 901.241 412.205 901.241C413.126 901.241 413.945 902.06 413.945 902.98Z" fill="url(#paint11_linear_206_27)"/>
<path d="M283.795 857.861C283.795 858.782 283.078 859.601 282.054 859.601C281.03 859.601 280.313 858.884 280.313 857.861C280.313 856.941 281.03 856.122 282.054 856.122C283.078 856.122 283.795 856.838 283.795 857.861Z" fill="url(#paint12_linear_206_27)"/>
<path d="M297.107 835.456C297.107 836.376 296.39 837.195 295.366 837.195C294.445 837.195 293.625 836.479 293.625 835.456C293.625 834.432 294.342 833.716 295.366 833.716C296.288 833.716 297.107 834.432 297.107 835.456Z" fill="url(#paint13_linear_206_27)"/>
<path d="M97.4269 784.812L95.3789 783.687L95.6861 783.073L97.7341 784.199L97.4269 784.812ZM94.1501 782.971L92.1021 781.845L92.4093 781.232L94.4573 782.357L94.1501 782.971ZM90.9757 781.129L88.9277 780.004L89.2349 779.39L91.2829 780.515L90.9757 781.129ZM87.8013 779.288L85.7533 778.162L86.0605 777.548L88.1085 778.674L87.8013 779.288ZM84.6269 777.548L82.5789 776.423L82.8861 775.809L84.9341 776.935L84.6269 777.548ZM81.4525 775.707L79.4045 774.581L79.7117 773.968L81.7597 775.093L81.4525 775.707ZM78.2781 773.865L76.2301 772.74L76.5373 772.126L78.5853 773.251L78.2781 773.865ZM75.1037 772.024L73.0557 770.898L73.3629 770.284L75.4109 771.41L75.1037 772.024ZM71.9293 770.182L69.8813 769.057L70.1885 768.443L72.2365 769.568L71.9293 770.182ZM68.7549 768.34L66.7069 767.215L67.0141 766.601L69.0621 767.727L68.7549 768.34ZM65.5805 766.499L63.5325 765.373L63.8397 764.76L65.8877 765.885L65.5805 766.499ZM62.4061 764.657L60.3581 763.532L60.6653 762.918L62.7133 764.043L62.4061 764.657ZM59.2317 762.816L57.1837 761.69L57.4909 761.076L59.5389 762.202L59.2317 762.816ZM56.0573 760.974L54.0093 759.849L54.3165 759.235L56.3645 760.36L56.0573 760.974Z" fill="url(#paint14_linear_206_27)"/>
<path d="M104.083 842.31L103.776 841.697L105.824 840.571L106.131 841.185L104.083 842.31ZM107.257 840.469L106.95 839.855L108.998 838.73L109.305 839.343L107.257 840.469ZM110.432 838.627L110.125 838.013L112.173 836.888L112.48 837.502L110.432 838.627ZM113.606 836.786L113.299 836.172L115.347 835.046L115.654 835.66L113.606 836.786ZM116.781 834.944L116.473 834.33L118.521 833.205L118.829 833.819L116.781 834.944ZM119.955 833.103L119.648 832.489L121.696 831.363L122.003 831.977L119.955 833.103ZM123.129 831.261L122.822 830.647L124.87 829.522L125.177 830.136L123.129 831.261ZM126.304 829.419L125.997 828.806L128.045 827.68L128.454 828.294L126.304 829.419ZM129.478 827.68L129.069 827.066L131.117 825.941L131.526 826.555L129.478 827.68ZM132.653 825.839L132.345 825.225L134.393 824.099L134.701 824.713L132.653 825.839ZM135.827 823.997L135.52 823.383L137.568 822.258L137.875 822.872L135.827 823.997ZM139.001 822.155L138.592 821.542L140.64 820.416L141.049 821.03L139.001 822.155ZM142.176 820.314L141.869 819.7L143.917 818.574L144.224 819.188L142.176 820.314ZM145.35 818.472L145.043 817.858L147.091 816.733L147.398 817.347L145.35 818.472Z" fill="url(#paint15_linear_206_27)"/>
<path d="M-14.1889 784.914L-14.4961 784.301L-12.3457 783.38L-12.0385 783.994L-14.1889 784.914ZM-10.8097 783.482L-11.1169 782.868L-8.96649 781.947L-8.65929 782.561L-10.8097 783.482ZM-7.53289 782.152L-7.84009 781.538L-5.68969 780.617L-5.38249 781.231L-7.53289 782.152ZM-4.15369 780.72L-4.46089 780.106L-2.31049 779.185L-2.00329 779.799L-4.15369 780.72ZM-0.774492 779.287L-1.08169 778.674L1.06871 777.753L1.37591 778.367L-0.774492 779.287ZM2.60471 777.957L2.29751 777.343L4.44791 776.423L4.75511 777.037L2.60471 777.957ZM5.98391 776.525L5.67671 775.911L7.82711 774.99L8.13431 775.604L5.98391 776.525ZM9.36311 775.093L9.05591 774.479L11.2063 773.558L11.5135 774.172L9.36311 775.093ZM12.6399 773.66L12.3327 773.046L14.4831 772.126L14.7903 772.74L12.6399 773.66ZM16.0191 772.33L15.7119 771.716L17.8623 770.796L18.1695 771.409L16.0191 772.33ZM19.3983 770.898L19.0911 770.284L21.2415 769.363L21.5487 769.977L19.3983 770.898ZM22.7775 769.466L22.4703 768.852L24.6207 767.931L24.9279 768.545L22.7775 769.466ZM26.1567 768.136L25.8495 767.522L27.9999 766.601L28.3071 767.215L26.1567 768.136ZM29.5359 766.703L29.2287 766.089L31.3791 765.169L31.6863 765.782L29.5359 766.703ZM32.8127 765.271L32.6079 764.657L34.7583 763.736L35.0655 764.35L32.8127 765.271ZM36.1919 763.839L35.8847 763.225L38.0351 762.304L38.3423 762.918L36.1919 763.839ZM39.5711 762.508L39.2639 761.895L41.4143 760.974L41.7215 761.588L39.5711 762.508ZM42.9503 761.076L42.6431 760.462L44.7935 759.541L45.1007 760.155L42.9503 761.076ZM46.3295 759.644L46.0223 759.03L48.1727 758.109L48.4799 758.723L46.3295 759.644ZM147.706 757.291L145.658 756.063L146.067 755.449L148.115 756.677L147.706 757.291ZM53.8047 756.063L53.3951 755.449L55.4431 754.221L55.8527 754.835L53.8047 756.063ZM144.531 755.449L142.483 754.221L142.893 753.607L144.941 754.835L144.531 755.449ZM57.0815 754.221L56.6719 753.607L58.7199 752.38L59.1295 752.994L57.0815 754.221ZM141.254 753.505L139.206 752.277L139.616 751.664L141.664 752.891L141.254 753.505ZM60.2559 752.38L59.8463 751.766L61.8943 750.538L62.3039 751.152L60.2559 752.38ZM138.08 751.561L136.032 750.334L136.442 749.72L138.49 750.947L138.08 751.561ZM63.5327 750.538L63.1231 749.924L65.1711 748.697L65.5807 749.31L63.5327 750.538ZM134.906 749.617L132.858 748.39L133.267 747.776L135.315 749.004L134.906 749.617ZM66.8095 748.697L66.3999 748.083L68.4479 746.855L68.8575 747.469L66.8095 748.697ZM131.731 747.776L129.683 746.548L130.093 745.934L132.141 747.162L131.731 747.776ZM70.0863 746.855L69.6767 746.241L71.7247 745.013L72.1343 745.627L70.0863 746.855ZM128.454 745.832L126.406 744.604L126.816 743.99L128.864 745.218L128.454 745.832ZM73.3631 745.013L72.9535 744.4L75.0015 743.172L75.4111 743.786L73.3631 745.013ZM125.28 743.888L123.232 742.66L123.642 742.046L125.69 743.274L125.28 743.888ZM76.5375 743.172L76.1279 742.558L78.1759 741.33L78.5855 741.944L76.5375 743.172ZM122.106 741.944L120.058 740.716L120.467 740.103L122.515 741.33L122.106 741.944ZM79.8143 741.33L79.4047 740.716L81.4527 739.489L81.8623 740.103L79.8143 741.33ZM118.829 740.103L116.781 738.875L117.19 738.261L119.238 739.489L118.829 740.103ZM83.0911 739.489L82.6815 738.875L84.7295 737.647L85.1391 738.261L83.0911 739.489ZM115.654 738.159L113.606 736.931L114.016 736.317L116.064 737.545L115.654 738.159ZM86.3679 737.647L85.9583 737.033L88.0063 735.806L88.4159 736.419L86.3679 737.647ZM112.48 736.215L110.432 734.987L110.842 734.373L112.89 735.601L112.48 736.215ZM89.6447 735.806L89.2351 735.192L91.2831 733.964L91.6927 734.578L89.6447 735.806ZM109.203 734.271L107.155 733.043L107.565 732.429L109.613 733.657L109.203 734.271ZM92.8191 733.964L92.4095 733.35L94.4575 732.122L94.8671 732.736L92.8191 733.964ZM106.029 732.429L103.981 731.202L104.39 730.588L106.438 731.815L106.029 732.429ZM96.0959 732.122L95.6863 731.508L97.7343 730.281L98.1439 730.895L96.0959 732.122Z" fill="url(#paint16_linear_206_27)"/>
<path d="M199.827 728.132V729.667H200.441L201.056 730.281L201.568 729.769L199.827 728.132ZM202.387 730.69L201.875 731.202L203.513 732.839L204.025 732.327L202.387 730.69ZM200.441 730.997H199.725V733.248H200.441V730.997ZM204.845 733.248L204.333 733.759L205.971 735.396L206.483 734.885L204.845 733.248ZM200.441 734.476H199.725V736.726H200.441V734.476ZM207.302 735.703L206.79 736.215L208.429 737.852L208.941 737.34L207.302 735.703ZM200.441 738.056H199.725V740.307H200.441V738.056ZM209.862 738.261L209.35 738.773L210.989 740.41L211.501 739.898L209.862 738.261ZM212.32 740.819L211.808 741.33L213.446 742.967L213.958 742.456L212.32 740.819ZM200.441 741.535H199.725V743.786H200.441V741.535ZM214.777 743.274L214.265 743.786L215.904 745.423L216.416 744.911L214.777 743.274ZM200.441 745.116H199.725V747.367H200.441V745.116ZM217.337 745.832L216.825 746.344L218.464 747.981L218.976 747.469L217.337 745.832ZM219.795 748.287L219.283 748.799L220.921 750.436L221.433 749.924L219.795 748.287ZM200.441 748.697H199.725V750.948H200.441V748.697ZM222.253 750.845L221.741 751.357L223.379 752.994L223.891 752.482L222.253 750.845ZM200.441 752.175H199.725V754.426H200.441V752.175ZM224.71 753.403L224.198 753.915L225.837 755.551L226.349 755.04L224.71 753.403ZM200.441 755.756H199.725V758.007H200.441V755.756ZM227.27 755.858L226.758 756.37L228.397 758.007L228.909 757.495L227.27 755.858ZM229.728 758.416L229.216 758.928L230.854 760.565L231.366 760.053L229.728 758.416ZM200.441 759.235H199.725V761.485H200.441V759.235ZM232.185 760.974L231.673 761.485L233.312 763.122L233.824 762.611L232.185 760.974ZM200.441 762.815H199.725V765.066H200.441V762.815ZM234.745 763.429L234.233 763.941L235.872 765.578L236.384 765.066L234.745 763.429ZM237.203 765.987L236.691 766.499L238.329 768.136L238.841 767.624L237.203 765.987ZM200.441 766.396H199.725V768.647H200.441V766.396ZM239.661 768.545L239.149 769.056L240.787 770.693L241.299 770.182L239.661 768.545ZM200.441 769.875H199.725V772.126H200.441V769.875ZM242.221 771L241.709 771.512L243.347 773.149L243.859 772.637L242.221 771ZM200.441 773.456H199.725V775.707H200.441V773.456ZM244.678 773.558L244.166 774.07L245.805 775.707L246.317 775.195L244.678 773.558ZM247.136 776.014L246.624 776.525L248.262 778.162L248.774 777.65L247.136 776.014ZM200.441 776.934H199.725V779.185H200.441V776.934ZM249.593 778.571L249.081 779.083L250.72 780.72L251.232 780.208L249.593 778.571ZM200.441 780.515H199.725V782.766H200.441V780.515ZM252.153 781.129L251.641 781.641L253.28 783.278L253.792 782.766L252.153 781.129ZM254.611 783.584L254.099 784.096L254.611 784.608L255.123 784.096L254.611 783.584Z" fill="url(#paint17_linear_206_27)"/>
<path d="M32.4032 729.667H30.048V728.951H32.4032V729.667ZM28.7168 729.667H26.3616V728.951H28.7168V729.667ZM25.0304 729.667H22.6752V728.951H25.0304V729.667ZM21.344 729.667H18.9888V728.951H21.344V729.667ZM17.6576 729.667H15.3024V728.951H17.6576V729.667ZM14.0736 729.667H11.7184V728.951H14.0736V729.667ZM10.3872 729.667H8.03198V728.951H10.3872V729.667ZM6.70078 729.667H4.34558V728.951H6.70078V729.667ZM3.01438 729.667H0.65918V728.951H3.01438V729.667Z" fill="url(#paint18_linear_206_27)"/>
<path d="M53.0878 813.152L52.6782 812.538L54.8286 811.31L55.2382 811.924L53.0878 813.152ZM56.3646 811.31L55.955 810.697L58.1054 809.469L58.515 810.083L56.3646 811.31ZM59.6414 809.367L59.2318 808.753L61.3822 807.525L61.7918 808.139L59.6414 809.367ZM63.0206 807.525L62.611 806.911L64.7614 805.683L65.171 806.297L63.0206 807.525ZM66.2974 805.683L65.8878 805.07L68.0382 803.842L68.4478 804.456L66.2974 805.683ZM69.5742 803.842L69.1646 803.228L71.315 802L71.7246 802.614L69.5742 803.842ZM72.9534 802L72.5438 801.386L74.6942 800.159L75.1038 800.773L72.9534 802ZM76.2302 800.159L75.8206 799.545L77.971 798.317L78.3806 798.931L76.2302 800.159ZM79.507 798.317L79.0974 797.703L81.2478 796.475L81.6574 797.089L79.507 798.317ZM82.8862 796.475L82.4766 795.862L84.627 794.634L85.0366 795.248L82.8862 796.475ZM86.163 794.634L85.7534 794.02L87.9038 792.792L88.3134 793.406L86.163 794.634ZM89.4398 792.792L89.0302 792.178L91.1806 790.951L91.5902 791.565L89.4398 792.792ZM92.7166 790.951L92.307 790.337L94.4574 789.109L94.867 789.723L92.7166 790.951ZM96.0958 789.109L95.6862 788.495L97.8366 787.268L98.2462 787.881L96.0958 789.109Z" fill="url(#paint19_linear_206_27)"/>
<path d="M84.2172 758.212H50.7324L33.8364 728.951L50.63 699.997L51.4492 700.509L35.0652 728.951L51.3468 757.188H84.2172V758.212Z" fill="url(#paint20_linear_206_27)"/>
<path d="M84.6268 872.799L83.8076 872.287L100.396 843.538L101.216 844.05L84.6268 872.799Z" fill="url(#paint21_linear_206_27)"/>
<path d="M134.188 786.858H100.396L83.5005 757.598L100.396 728.337H134.188L151.084 757.598L134.188 786.858ZM101.011 785.835H133.574L149.856 757.598L133.574 729.36H101.011L84.7293 757.598L101.011 785.835Z" fill="url(#paint22_linear_206_27)"/>
<path d="M134.189 844.357H100.397L83.603 815.403L84.5246 814.891L101.011 843.334H133.574L149.856 815.096L133.472 786.654L134.291 786.142L151.085 815.096L134.189 844.357Z" fill="url(#paint23_linear_206_27)"/>
<path d="M84.5244 815.608H50.7324L33.8364 786.347L50.7324 757.188H84.2172V758.212H51.3468L35.0652 786.347L51.3468 814.585H83.91L100.396 786.142L101.216 786.654L84.5244 815.608Z" fill="url(#paint24_linear_206_27)"/>
<path d="M184.057 815.403L183.136 814.891L199.52 786.347L183.238 758.212H150.368V757.188H183.852L200.748 786.347L184.057 815.403Z" fill="url(#paint25_linear_206_27)"/>
<path d="M184.057 757.905L183.136 757.393L199.725 728.746L200.646 729.258L184.057 757.905Z" fill="url(#paint26_linear_206_27)"/>
<path d="M256.864 785.835H200.134V786.859H256.864V785.835Z" fill="url(#paint27_linear_206_27)"/>
<path d="M34.4509 785.835H-16.4419V786.859H34.4509V785.835Z" fill="url(#paint28_linear_206_27)"/>
<path d="M85.8559 815.096C85.8559 816.017 85.1391 816.733 84.2175 816.733C83.2959 816.733 82.5791 816.017 82.5791 815.096C82.5791 814.175 83.2959 813.459 84.2175 813.459C85.1391 813.459 85.8559 814.175 85.8559 815.096Z" fill="url(#paint29_linear_206_27)"/>
<path d="M52.6782 815.096C52.6782 816.017 51.9614 816.733 51.0398 816.733C50.1182 816.733 49.4014 816.017 49.4014 815.096C49.4014 814.175 50.1182 813.459 51.0398 813.459C51.9614 813.459 52.6782 814.175 52.6782 815.096Z" fill="url(#paint30_linear_206_27)"/>
<path d="M85.8559 872.492C85.8559 873.413 85.1391 874.129 84.2175 874.129C83.2959 874.129 82.5791 873.413 82.5791 872.492C82.5791 871.571 83.2959 870.855 84.2175 870.855C85.1391 870.855 85.8559 871.571 85.8559 872.492Z" fill="url(#paint31_linear_206_27)"/>
<path d="M102.445 786.347C102.445 787.268 101.728 787.984 100.806 787.984C99.8848 787.984 99.168 787.268 99.168 786.347C99.168 785.426 99.8848 784.71 100.806 784.71C101.728 784.71 102.445 785.528 102.445 786.347Z" fill="url(#paint32_linear_206_27)"/>
<path d="M102.445 843.845C102.445 844.766 101.728 845.482 100.806 845.482C99.8848 845.482 99.168 844.766 99.168 843.845C99.168 842.924 99.8848 842.208 100.806 842.208C101.728 842.208 102.445 842.924 102.445 843.845Z" fill="url(#paint33_linear_206_27)"/>
<path d="M135.827 786.347C135.827 787.268 135.11 787.984 134.189 787.984C133.267 787.984 132.55 787.268 132.55 786.347C132.55 785.426 133.267 784.71 134.189 784.71C135.11 784.71 135.827 785.528 135.827 786.347Z" fill="url(#paint34_linear_206_27)"/>
<path d="M135.827 728.951C135.827 729.872 135.11 730.588 134.189 730.588C133.267 730.588 132.55 729.872 132.55 728.951C132.55 728.03 133.267 727.314 134.189 727.314C135.11 727.314 135.827 728.03 135.827 728.951Z" fill="url(#paint35_linear_206_27)"/>
<path d="M102.342 728.951C102.342 729.872 101.625 730.588 100.704 730.588C99.7822 730.588 99.0654 729.872 99.0654 728.951C99.0654 728.03 99.7822 727.314 100.704 727.314C101.625 727.314 102.342 728.03 102.342 728.951Z" fill="url(#paint36_linear_206_27)"/>
<path d="M201.773 786.347C201.773 787.268 201.056 787.984 200.135 787.984C199.213 787.984 198.496 787.268 198.496 786.347C198.496 785.426 199.213 784.71 200.135 784.71C201.056 784.71 201.773 785.528 201.773 786.347Z" fill="url(#paint37_linear_206_27)"/>
<path d="M258.502 786.347C258.502 787.268 257.786 787.984 256.864 787.984C255.942 787.984 255.226 787.268 255.226 786.347C255.226 785.426 255.942 784.71 256.864 784.71C257.786 784.71 258.502 785.528 258.502 786.347Z" fill="url(#paint38_linear_206_27)"/>
<path d="M36.0893 786.347C36.0893 787.268 35.3725 787.984 34.4509 787.984C33.5293 787.984 32.8125 787.268 32.8125 786.347C32.8125 785.426 33.5293 784.71 34.4509 784.71C35.3725 784.71 36.0893 785.528 36.0893 786.347Z" fill="url(#paint39_linear_206_27)"/>
<path d="M85.8559 757.7C85.8559 758.621 85.1391 759.337 84.2175 759.337C83.2959 759.337 82.5791 758.621 82.5791 757.7C82.5791 756.779 83.2959 756.063 84.2175 756.063C85.1391 756.063 85.8559 756.779 85.8559 757.7Z" fill="url(#paint40_linear_206_27)"/>
<path d="M52.6782 757.7C52.6782 758.621 51.9614 759.337 51.0398 759.337C50.1182 759.337 49.4014 758.621 49.4014 757.7C49.4014 756.779 50.1182 756.063 51.0398 756.063C51.9614 756.063 52.6782 756.779 52.6782 757.7Z" fill="url(#paint41_linear_206_27)"/>
<path d="M185.184 757.7C185.184 758.621 184.467 759.337 183.546 759.337C182.624 759.337 181.907 758.621 181.907 757.7C181.907 756.779 182.624 756.063 183.546 756.063C184.467 756.063 185.184 756.779 185.184 757.7Z" fill="url(#paint42_linear_206_27)"/>
<path d="M201.773 728.951C201.773 729.872 201.056 730.588 200.135 730.588C199.213 730.588 198.496 729.872 198.496 728.951C198.496 728.03 199.213 727.314 200.135 727.314C201.056 727.314 201.773 728.03 201.773 728.951Z" fill="url(#paint43_linear_206_27)"/>
<path d="M152.006 757.7C152.006 758.621 151.289 759.337 150.368 759.337C149.446 759.337 148.729 758.621 148.729 757.7C148.729 756.779 149.446 756.063 150.368 756.063C151.289 756.063 152.006 756.779 152.006 757.7Z" fill="url(#paint44_linear_206_27)"/>
<path d="M135.827 843.845C135.827 844.766 135.11 845.482 134.189 845.482C133.267 845.482 132.55 844.766 132.55 843.845C132.55 842.924 133.267 842.208 134.189 842.208C135.11 842.208 135.827 842.924 135.827 843.845Z" fill="url(#paint45_linear_206_27)"/>
<path d="M152.006 815.096C152.006 816.017 151.289 816.733 150.368 816.733C149.446 816.733 148.729 816.017 148.729 815.096C148.729 814.175 149.446 813.459 150.368 813.459C151.289 813.459 152.006 814.175 152.006 815.096Z" fill="url(#paint46_linear_206_27)"/>
<path d="M185.184 815.096C185.184 816.017 184.467 816.733 183.546 816.733C182.624 816.733 181.907 816.017 181.907 815.096C181.907 814.175 182.624 813.459 183.546 813.459C184.467 813.459 185.184 814.175 185.184 815.096Z" fill="url(#paint47_linear_206_27)"/>
<path d="M36.0893 728.951C36.0893 729.872 35.3725 730.588 34.4509 730.588C33.5293 730.588 32.8125 729.872 32.8125 728.951C32.8125 728.03 33.5293 727.314 34.4509 727.314C35.3725 727.314 36.0893 728.03 36.0893 728.951Z" fill="url(#paint48_linear_206_27)"/>
<path d="M52.6782 700.713C52.6782 701.634 51.9614 702.35 51.0398 702.35C50.1182 702.35 49.4014 701.634 49.4014 700.713C49.4014 699.792 50.1182 699.076 51.0398 699.076C51.9614 699.076 52.6782 699.792 52.6782 700.713Z" fill="url(#paint49_linear_206_27)"/>
<path d="M116.883 743.99C116.781 743.888 116.678 743.888 116.576 743.99C116.474 744.093 116.371 744.195 116.371 744.297V746.957C110.432 747.367 105.722 752.277 105.722 758.109C105.722 760.871 106.746 763.532 108.589 765.578C108.691 765.68 108.691 765.68 108.794 765.68C108.896 765.68 108.896 765.68 108.998 765.578L111.661 763.532C111.763 763.429 111.763 763.429 111.763 763.327C111.763 763.225 111.763 763.122 111.661 763.122C110.33 761.792 109.613 760.053 109.613 758.109C109.613 754.426 112.582 751.254 116.371 750.947V753.71C116.371 753.812 116.474 753.914 116.576 754.017C116.678 754.017 116.781 754.017 116.883 754.017L119.955 751.561C119.955 751.561 119.955 751.561 120.058 751.561L121.286 750.64L123.13 749.208C123.232 749.106 123.232 749.004 123.232 749.004C123.232 748.901 123.232 748.799 123.13 748.799L116.883 743.99Z" fill="url(#paint50_linear_206_27)"/>
<path d="M124.768 750.231L122.003 752.482C121.901 752.584 121.901 752.584 121.901 752.686C121.901 752.789 121.901 752.891 122.003 752.891C123.437 754.221 124.256 756.063 124.256 758.109C124.256 762.099 120.979 765.168 117.088 765.271V762.508C117.088 762.406 116.986 762.304 116.883 762.201C116.781 762.099 116.678 762.201 116.576 762.201L113.606 764.554C113.504 764.554 113.504 764.554 113.504 764.657L110.739 766.805C110.637 766.908 110.637 766.908 110.637 767.01C110.637 767.112 110.637 767.215 110.739 767.215L116.678 772.125C116.781 772.125 116.781 772.228 116.883 772.228H116.986C117.088 772.228 117.19 772.023 117.19 771.921V769.261C123.437 769.261 128.659 764.35 128.659 758.109C128.659 755.142 127.43 752.277 125.382 750.231C125.075 750.129 124.87 750.129 124.768 750.231Z" fill="url(#paint51_linear_206_27)"/>
<path d="M297.307 834L297 834.614L298.843 835.739L299.15 835.125L297.307 834ZM300.277 835.739L299.97 836.353L301.813 837.479L302.12 836.865L300.277 835.739ZM303.246 837.479L302.939 838.092L304.782 839.218L305.09 838.604L303.246 837.479ZM306.216 839.218L305.909 839.832L307.752 840.957L308.059 840.343L306.216 839.218ZM309.083 840.957L308.776 841.571L310.619 842.696L310.926 842.083L309.083 840.957ZM312.053 842.696L311.746 843.31L313.589 844.436L313.896 843.822L312.053 842.696ZM315.022 844.436L314.715 845.05L316.558 846.175L316.866 845.561L315.022 844.436ZM317.992 846.175L317.685 846.789L319.528 847.914L319.835 847.3L317.992 846.175ZM320.962 847.914L320.654 848.528L322.498 849.653L322.805 849.04L320.962 847.914ZM323.829 849.653L323.522 850.267L325.365 851.393L325.672 850.779L323.829 849.653ZM326.798 851.393L326.491 852.007L328.334 853.132L328.642 852.518L326.798 851.393ZM329.768 853.132L329.461 853.746L331.304 854.871L331.611 854.257L329.768 853.132Z" fill="url(#paint52_linear_206_27)"/>
<path d="M336.633 901.855L336.326 901.241L338.272 900.116L338.579 900.73L336.633 901.855ZM339.705 900.116L339.398 899.502L341.344 898.377L341.651 898.99L339.705 900.116ZM342.88 898.274L342.573 897.66L344.518 896.535L344.825 897.149L342.88 898.274ZM345.952 896.535L345.645 895.921L347.59 894.796L347.897 895.41L345.952 896.535ZM349.024 894.693L348.717 894.079L350.662 892.954L350.969 893.568L349.024 894.693ZM352.198 892.954L351.891 892.34L353.837 891.215L354.144 891.829L352.198 892.954ZM355.27 891.112L354.963 890.499L356.909 889.373L357.216 889.987L355.27 891.112ZM358.342 889.373L358.035 888.759L359.981 887.634L360.288 888.248L358.342 889.373ZM361.517 887.532L361.209 886.918L363.155 885.792L363.462 886.406L361.517 887.532ZM364.589 885.792L364.281 885.178L366.227 884.053L366.534 884.667L364.589 885.792ZM367.661 883.951L367.353 883.337L369.299 882.211L369.606 882.825L367.661 883.951ZM370.835 882.211L370.528 881.598L372.473 880.472L372.781 881.086L370.835 882.211ZM373.907 880.37L373.6 879.756L375.545 878.631L375.853 879.244L373.907 880.37ZM376.979 878.631L376.672 878.017L378.617 876.891L378.925 877.505L376.979 878.631ZM380.153 876.789L379.744 876.175L381.689 875.05L381.997 875.664L380.153 876.789ZM383.225 875.05L382.918 874.436L384.864 873.311L385.171 873.924L383.225 875.05ZM386.297 873.208L385.99 872.594L387.936 871.469L388.243 872.083L386.297 873.208ZM389.472 871.469L389.165 870.855L391.11 869.73L391.417 870.344L389.472 871.469ZM392.544 869.627L392.237 869.013L394.182 867.888L394.489 868.502L392.544 869.627ZM395.616 867.786L395.309 867.172L397.254 866.046L397.561 866.66L395.616 867.786ZM398.79 866.046L398.483 865.433L400.429 864.307L400.736 864.921L398.79 866.046ZM401.862 864.205L401.555 863.591L403.501 862.466L403.808 863.079L401.862 864.205ZM404.934 862.466L404.627 861.852L406.573 860.726L406.88 861.34L404.934 862.466ZM408.109 860.624L407.801 860.01L409.747 858.885L410.054 859.499L408.109 860.624Z" fill="url(#paint53_linear_206_27)"/>
<g opacity="0.4">
<path d="M213.242 736.215L214.47 737.443C214.675 737.647 215.085 737.647 215.29 737.34C217.44 734.169 218.464 730.486 218.362 726.598C218.054 716.571 209.555 708.591 199.52 709C198.803 709 198.086 709.103 197.472 709.205C189.075 710.433 182.522 717.39 181.907 725.882C181.6 730.486 182.931 734.885 185.594 738.363C185.798 738.67 186.208 738.67 186.413 738.363L187.539 737.033C187.744 736.829 187.744 736.624 187.539 736.42C185.594 733.759 184.57 730.588 184.57 727.314C184.57 719.231 190.816 712.377 198.906 711.763C207.814 711.047 215.392 717.901 215.699 726.7C215.802 729.872 214.982 732.941 213.242 735.499C213.037 735.806 213.139 736.01 213.242 736.215Z" fill="url(#paint54_linear_206_27)"/>
</g>
<g opacity="0.6">
<path d="M208.941 731.509L210.375 732.941C210.682 733.248 211.194 733.145 211.296 732.736C212.115 730.997 212.525 729.155 212.423 727.109C212.218 721.277 207.917 716.264 202.183 715.344C200.544 715.037 198.701 715.139 197.063 715.548C191.431 716.98 187.437 722.198 187.642 728.03C187.744 729.974 188.256 731.815 189.178 733.555C189.383 733.964 189.895 733.964 190.202 733.657L191.533 732.122C191.635 731.918 191.738 731.713 191.635 731.509C191.123 730.383 190.816 729.258 190.816 728.03C190.714 724.142 193.069 720.561 196.653 719.027C198.701 718.208 200.954 718.106 203.104 718.822C206.791 720.05 209.453 723.528 209.555 727.416C209.555 728.644 209.351 729.872 208.941 730.997C208.736 731.099 208.839 731.304 208.941 731.509Z" fill="url(#paint55_linear_206_27)"/>
</g>
<path d="M210.886 743.07L210.682 737.954C210.682 737.647 210.579 736.42 209.555 736.113C209.043 736.01 208.634 736.01 208.224 736.215H208.122C207.917 735.601 207.507 735.192 206.893 735.09C206.176 734.987 205.664 735.192 205.254 735.499C204.947 734.885 204.23 734.476 203.411 734.578C202.797 734.68 202.285 734.987 201.978 735.397L201.875 731.1C201.875 730.281 201.773 729.36 201.773 728.542C201.67 727.621 200.851 726.905 199.93 726.905C199.418 726.905 198.906 727.212 198.496 727.519C198.086 727.928 198.086 728.439 198.086 728.951V730.997V736.727C198.086 736.931 198.189 740.921 198.189 740.921C197.882 740.614 197.472 740.205 197.062 739.796C196.243 738.977 194.81 738.364 193.786 738.364C193.274 738.364 192.864 738.364 192.659 738.568C192.557 738.67 192.454 738.67 192.454 738.773C191.942 739.284 191.635 740.103 191.942 740.614C192.147 740.819 192.352 741.024 192.659 741.228C193.069 741.433 193.683 741.74 194.093 742.251C194.912 743.172 196.755 745.321 197.882 746.548C198.086 746.651 198.598 747.162 198.803 747.265C199.52 747.674 200.134 748.083 200.339 748.288C200.544 748.492 201.466 748.901 201.466 748.901C202.182 749.311 203.616 749.72 205.152 749.72C206.688 749.72 208.122 749.72 209.146 748.799H209.248V748.697C210.272 747.674 210.886 746.344 210.784 744.911C210.989 744.707 210.886 743.377 210.886 743.07Z" fill="url(#paint56_linear_206_27)"/>
<path d="M199.93 723.017C197.575 723.119 195.731 725.063 195.731 727.416C195.731 728.746 196.243 729.872 197.063 730.588V728.849C197.063 728.133 197.267 727.519 197.677 727.007C198.189 726.291 199.008 725.882 199.93 725.882C201.363 725.882 202.49 726.803 202.797 728.133C202.899 728.337 202.899 728.542 202.899 728.849V730.69C203.923 729.872 204.333 728.644 204.231 727.212C204.333 724.859 202.285 722.915 199.93 723.017Z" fill="url(#paint57_linear_206_27)"/>
<path d="M117.498 810.492C113.504 810.492 109.613 812.027 106.746 814.789C106.234 815.198 106.029 815.812 106.029 816.426C106.029 817.04 106.234 817.654 106.643 818.165C107.053 818.677 107.77 818.882 108.384 818.882C108.998 818.882 109.613 818.677 110.022 818.268C112.07 816.324 114.733 815.301 117.498 815.301C120.262 815.301 122.925 816.324 124.973 818.268C125.894 819.189 127.43 819.086 128.352 818.165C128.762 817.654 129.069 817.142 128.966 816.426C128.966 815.812 128.659 815.198 128.25 814.789C125.382 812.027 121.491 810.492 117.498 810.492Z" fill="url(#paint58_linear_206_27)"/>
<path d="M133.267 808.241C128.966 804.251 123.334 802 117.497 802C111.558 802 105.926 804.251 101.625 808.344C101.113 808.753 100.909 809.367 100.909 809.981C100.909 810.595 101.113 811.208 101.523 811.72C101.933 812.232 102.649 812.436 103.264 812.436C103.878 812.436 104.493 812.232 104.902 811.822C108.282 808.548 112.787 806.809 117.395 806.809C122.105 806.809 126.509 808.548 129.888 811.822C130.809 812.743 132.345 812.641 133.267 811.72C133.677 811.208 133.984 810.697 133.881 809.981C134.086 809.265 133.779 808.651 133.267 808.241Z" fill="url(#paint59_linear_206_27)"/>
<path d="M117.907 819.188C115.347 819.188 113.197 821.235 113.197 823.895C113.197 826.452 115.245 828.601 117.907 828.601C120.467 828.601 122.618 826.555 122.618 823.895C122.618 821.235 120.467 819.188 117.907 819.188ZM117.907 823.792C117.907 823.895 117.907 823.895 117.907 823.792Z" fill="url(#paint60_linear_206_27)"/>
<path d="M81.9645 717.697L79.3021 715.037C78.4829 714.218 77.1517 713.707 75.9229 713.809C74.6941 713.911 73.5677 714.423 72.6461 715.344L67.6285 720.357C67.5261 720.459 67.4237 720.561 67.3213 720.766C66.8093 720.561 66.1949 720.561 65.6829 720.561C64.4541 720.664 63.3277 721.175 62.4061 722.096L54.3165 730.179C53.3949 731.099 52.8829 732.225 52.7805 733.452C52.6781 734.782 53.0877 736.01 54.0093 736.931L56.6717 739.591C57.4909 740.41 58.5149 740.819 59.6413 740.819C59.8461 740.819 59.9485 740.819 60.1533 740.819C61.3821 740.716 62.5085 740.103 63.4301 739.284L68.0381 734.68C68.2429 734.476 68.4477 734.169 68.5501 733.759C69.0621 733.964 69.5741 734.066 70.0861 734.066C71.4173 734.066 72.7485 733.452 73.7725 732.429L81.8621 724.347C82.7837 723.426 83.2957 722.301 83.3981 721.073C83.2957 719.743 82.8861 718.515 81.9645 717.697ZM66.9117 727.416C66.8093 727.314 66.8093 727.109 66.8093 727.007C66.8093 726.7 67.0141 726.393 67.3213 726.086C67.4237 725.984 67.5261 725.881 67.6285 725.779L68.9597 727.109C69.0621 727.212 69.0621 727.416 69.0621 727.518C69.0621 727.825 68.8573 728.132 68.5501 728.439C68.4477 728.542 68.3453 728.644 68.2429 728.746L66.9117 727.416ZM71.6221 724.449L70.2909 723.119L75.3085 718.106C75.6157 717.799 75.9229 717.697 76.2301 717.594C76.4349 717.594 76.5373 717.594 76.6397 717.697L79.3021 720.357C79.4045 720.459 79.4045 720.664 79.4045 720.766C79.4045 721.073 79.1997 721.38 78.8925 721.687L72.9533 727.621C72.9533 726.393 72.5437 725.268 71.6221 724.449ZM65.0685 731.918L60.4605 736.522C60.1533 736.829 59.8461 736.931 59.5389 737.033C59.3341 737.033 59.2317 737.033 59.1293 736.931L56.4669 734.271C56.3645 734.169 56.3645 733.964 56.3645 733.862C56.3645 733.555 56.5693 733.248 56.8765 732.941L62.8157 727.007C62.8157 728.235 63.2253 729.36 64.0445 730.179L65.3757 731.509C65.3757 731.611 65.2733 731.713 65.0685 731.918Z" fill="url(#paint61_linear_206_27)"/>
<path d="M394.285 895.614H391.725C391.008 895.614 390.394 896.228 390.394 896.944V899.502C390.394 900.218 390.906 900.73 391.622 900.832V904.106L388.346 906.459V892.852L388.858 893.568C389.267 894.182 390.086 894.284 390.701 893.875C391.008 893.67 391.213 893.363 391.213 893.056C391.315 892.749 391.213 892.34 391.008 892.033L388.141 887.941C387.936 887.634 387.526 887.429 387.014 887.429C386.605 887.429 386.195 887.634 385.888 887.941L383.021 892.033C382.816 892.34 382.714 892.647 382.816 893.056C382.918 893.363 383.021 893.67 383.328 893.875C383.533 894.079 383.84 894.079 384.045 894.079C384.147 894.079 384.147 894.079 384.25 894.079C384.557 893.977 384.864 893.875 385.069 893.568L385.581 892.852V908.914L382.509 906.766V902.571C383.226 902.571 383.738 901.957 383.738 901.241V898.683C383.738 897.967 383.123 897.353 382.406 897.353H379.846C379.13 897.353 378.515 897.967 378.515 898.683V901.241C378.515 901.957 379.027 902.571 379.744 902.571V907.482C379.744 907.891 379.949 908.3 380.358 908.607L385.478 912.188C384.147 912.7 383.226 914.03 383.226 915.462C383.226 917.406 384.864 919.043 386.81 919.043C388.755 919.043 390.394 917.406 390.394 915.462C390.394 914.541 389.984 913.621 389.37 912.904C389.062 912.598 388.55 912.291 388.141 912.086V909.631C388.243 909.631 388.346 909.528 388.448 909.528L393.568 905.947C393.875 905.743 394.182 905.333 394.182 904.822V900.73C394.899 900.73 395.411 900.116 395.411 899.399V896.842C395.616 896.228 395.002 895.614 394.285 895.614ZM388.038 915.36C388.038 915.871 387.629 916.281 387.117 916.281C386.605 916.281 386.195 915.871 386.195 915.36C386.195 914.848 386.605 914.439 387.117 914.439C387.424 914.439 387.629 914.541 387.834 914.746C387.936 914.848 388.038 915.155 388.038 915.36Z" fill="url(#paint62_linear_206_27)"/>
<path d="M249.593 836.478C249.286 836.478 248.979 836.274 248.877 835.967C247.955 833.921 247.545 831.67 247.545 829.419C247.545 829.01 247.853 828.601 248.365 828.601C248.774 828.601 249.184 828.908 249.184 829.419C249.184 831.465 249.593 833.409 250.413 835.353C250.617 835.762 250.413 836.172 250.003 836.376C249.901 836.376 249.696 836.478 249.593 836.478Z" fill="url(#paint63_linear_206_27)"/>
<path d="M278.573 838.32C278.47 838.32 278.368 838.32 278.265 838.218C277.856 838.013 277.651 837.604 277.856 837.195C278.573 835.763 278.982 834.228 279.187 832.693C279.289 832.284 279.597 831.977 280.109 831.977C280.518 832.079 280.825 832.386 280.825 832.898C280.621 834.637 280.109 836.274 279.392 837.911C279.085 838.116 278.777 838.32 278.573 838.32Z" fill="url(#paint64_linear_206_27)"/>
<path d="M280.313 830.238C279.904 830.238 279.494 829.931 279.494 829.419C279.494 823.281 275.91 817.858 270.278 815.505C269.868 815.301 269.664 814.891 269.868 814.482C270.073 814.073 270.483 813.868 270.892 814.073C277.139 816.733 281.132 822.769 281.132 829.522C281.03 829.931 280.723 830.238 280.313 830.238Z" fill="url(#paint65_linear_206_27)"/>
<path d="M249.286 825.02C249.184 825.02 249.081 825.02 248.979 825.02C248.569 824.918 248.365 824.406 248.467 823.997C250.822 817.244 257.171 812.743 264.237 812.743C264.646 812.743 265.056 813.05 265.056 813.561C265.056 813.97 264.749 814.38 264.237 814.38C257.785 814.38 252.051 818.472 249.901 824.508C249.901 824.815 249.593 825.02 249.286 825.02Z" fill="url(#paint66_linear_206_27)"/>
<path d="M251.641 831.772C251.232 831.772 250.925 831.465 250.822 831.056C250.72 830.544 250.72 829.931 250.72 829.419C250.72 824.61 253.28 820.109 257.478 817.756C257.888 817.551 258.297 817.653 258.605 818.063C258.809 818.472 258.707 818.881 258.297 819.188C254.611 821.336 252.358 825.327 252.358 829.521C252.358 830.033 252.358 830.544 252.461 830.954C252.461 831.363 252.153 831.772 251.641 831.772C251.744 831.772 251.744 831.772 251.641 831.772Z" fill="url(#paint67_linear_206_27)"/>
<path d="M272.121 820.211C271.917 820.211 271.814 820.109 271.609 820.007C269.459 818.37 267.002 817.449 264.237 817.449C263.622 817.449 263.11 817.449 262.496 817.551C262.086 817.654 261.677 817.347 261.574 816.835C261.472 816.426 261.779 816.017 262.291 815.914C262.905 815.812 263.622 815.812 264.237 815.812C267.309 815.812 270.176 816.835 272.531 818.677C272.838 818.984 272.941 819.393 272.633 819.802C272.633 820.109 272.429 820.211 272.121 820.211Z" fill="url(#paint68_linear_206_27)"/>
<path d="M272.736 843.743C272.531 843.743 272.429 843.641 272.224 843.538C271.917 843.231 271.814 842.72 272.122 842.413C276.218 837.4 278.163 828.703 274.374 822.872C274.17 822.462 274.272 822.053 274.579 821.746C274.989 821.541 275.398 821.644 275.706 821.951C277.651 824.918 278.368 828.908 277.856 833C277.344 836.786 275.706 840.571 273.35 843.334C273.146 843.64 272.941 843.743 272.736 843.743Z" fill="url(#paint69_linear_206_27)"/>
<path d="M265.158 835.046C264.749 835.046 264.339 834.739 264.339 834.33C264.237 832.795 264.032 831.363 263.725 829.931C263.622 829.522 263.827 829.112 264.237 829.01C264.646 828.908 265.056 829.112 265.158 829.522C265.568 831.056 265.773 832.591 265.875 834.228C265.978 834.637 265.568 835.046 265.158 835.046Z" fill="url(#paint70_linear_206_27)"/>
<path d="M263.315 846.198C263.213 846.198 263.11 846.198 263.008 846.096C262.598 845.891 262.394 845.482 262.598 845.073C263.622 842.413 264.339 839.65 264.442 836.99C264.442 836.581 264.851 836.274 265.261 836.274C265.67 836.274 265.978 836.683 265.978 837.092C265.773 839.957 265.056 842.924 263.93 845.686C263.93 845.993 263.622 846.198 263.315 846.198Z" fill="url(#paint71_linear_206_27)"/>
<path d="M251.846 840.162C251.744 840.162 251.744 840.162 251.642 840.162C251.232 840.059 251.027 839.65 251.13 839.139C251.539 837.604 251.642 835.967 251.437 834.33C251.334 833.921 251.642 833.512 252.154 833.409C252.563 833.307 252.973 833.614 253.075 834.125C253.28 835.967 253.178 837.809 252.666 839.548C252.563 839.957 252.154 840.162 251.846 840.162Z" fill="url(#paint72_linear_206_27)"/>
<path d="M273.965 830.238C273.555 830.238 273.146 829.931 273.146 829.419C273.146 826.452 271.712 823.792 269.254 822.155C268.845 821.951 268.845 821.439 269.05 821.03C269.254 820.621 269.766 820.621 270.176 820.825C273.043 822.769 274.682 826.043 274.682 829.419C274.784 829.931 274.374 830.238 273.965 830.238Z" fill="url(#paint73_linear_206_27)"/>
<path d="M254.713 830.238C254.304 830.238 253.894 829.931 253.894 829.419C253.894 823.69 258.604 818.983 264.339 818.983C264.646 818.983 265.056 818.983 265.363 819.086C265.772 819.086 266.08 819.495 266.08 819.904C266.08 820.313 265.67 820.62 265.26 820.62C264.953 820.62 264.646 820.62 264.339 820.62C259.424 820.62 255.43 824.61 255.43 829.521C255.43 829.931 255.123 830.238 254.713 830.238Z" fill="url(#paint74_linear_206_27)"/>
<path d="M254.406 842.72C254.304 842.72 254.202 842.72 254.099 842.72C253.69 842.617 253.485 842.106 253.587 841.697C254.202 839.957 254.509 838.218 254.509 836.376C254.509 835.149 254.406 834.023 254.099 832.796C253.997 832.386 254.304 831.977 254.714 831.875C255.123 831.772 255.533 832.079 255.635 832.489C255.942 833.819 256.147 835.046 256.147 836.376C256.147 838.423 255.84 840.367 255.123 842.31C255.021 842.515 254.714 842.72 254.406 842.72Z" fill="url(#paint75_linear_206_27)"/>
<path d="M266.387 846.198C266.182 846.198 265.875 846.096 265.773 845.891C265.568 845.482 265.568 845.073 265.977 844.766C269.971 842.004 272.531 837.809 273.145 833C273.248 832.591 273.555 832.284 274.067 832.284C274.477 832.386 274.784 832.693 274.784 833.205C274.067 838.525 271.302 843.129 266.899 846.096C266.694 846.198 266.592 846.198 266.387 846.198Z" fill="url(#paint76_linear_206_27)"/>
<path d="M258.604 827.271C258.502 827.271 258.4 827.271 258.195 827.168C257.785 826.964 257.683 826.452 257.888 826.145C259.116 823.792 261.574 822.257 264.236 822.257C266.08 822.257 267.718 822.973 269.049 824.099C269.356 824.406 269.356 824.917 269.152 825.224C268.844 825.531 268.332 825.531 268.025 825.327C267.001 824.406 265.67 823.894 264.236 823.894C262.086 823.894 260.243 825.02 259.219 826.861C259.219 827.168 258.912 827.271 258.604 827.271Z" fill="url(#paint77_linear_206_27)"/>
<path d="M258.912 837.809C258.502 837.809 258.093 837.502 258.093 836.99C258.093 834.739 257.786 832.488 257.171 830.34C257.069 829.931 257.274 829.521 257.683 829.419C258.093 829.317 258.502 829.521 258.605 829.931C259.219 832.182 259.526 834.637 259.526 836.99C259.731 837.502 259.322 837.809 258.912 837.809Z" fill="url(#paint78_linear_206_27)"/>
<path d="M257.478 844.561C257.376 844.561 257.273 844.561 257.171 844.459C256.761 844.254 256.557 843.845 256.761 843.436C257.273 842.31 257.683 841.083 257.888 839.855C257.99 839.446 258.4 839.139 258.809 839.241C259.219 839.343 259.526 839.753 259.424 840.162C259.219 841.492 258.809 842.822 258.195 844.152C257.99 844.357 257.683 844.561 257.478 844.561Z" fill="url(#paint79_linear_206_27)"/>
<path d="M271.404 834.33C270.892 834.33 270.585 833.921 270.585 833.512C270.688 831.67 270.483 829.828 269.868 828.089C269.766 827.68 269.971 827.271 270.38 827.066C270.79 826.964 271.2 827.168 271.404 827.578C272.121 829.522 272.326 831.568 272.224 833.614C272.121 834.023 271.814 834.33 271.404 834.33Z" fill="url(#paint80_linear_206_27)"/>
<path d="M260.243 845.584C260.141 845.584 260.038 845.584 259.936 845.482C259.526 845.277 259.321 844.868 259.526 844.459C259.936 843.64 260.243 842.719 260.448 841.901C260.55 841.492 260.96 841.287 261.472 841.389C261.881 841.492 262.086 841.901 261.984 842.412C261.677 843.333 261.369 844.254 260.96 845.175C260.755 845.482 260.55 845.584 260.243 845.584Z" fill="url(#paint81_linear_206_27)"/>
<path d="M261.677 840.469H261.574C261.165 840.367 260.857 839.957 260.96 839.548C261.165 838.32 261.165 837.093 261.165 835.763C261.165 835.149 261.062 834.535 260.96 833.921C260.857 833.512 261.165 833.103 261.574 833C261.984 832.898 262.393 833.205 262.496 833.614C262.598 834.228 262.701 834.944 262.701 835.558C262.803 836.888 262.701 838.32 262.496 839.65C262.393 840.162 262.086 840.469 261.677 840.469Z" fill="url(#paint82_linear_206_27)"/>
<path d="M268.64 835.353C268.23 835.353 267.821 835.046 267.821 834.535C267.821 831.875 267.104 826.861 264.339 826.861C262.906 826.861 261.779 827.987 261.779 829.419V829.521C261.779 829.931 261.472 830.34 261.062 830.34C260.653 830.34 260.243 830.033 260.243 829.624C260.243 829.521 260.243 829.419 260.243 829.419C260.243 827.168 262.086 825.327 264.339 825.327C268.128 825.327 269.459 830.34 269.459 834.535C269.459 834.944 269.05 835.353 268.64 835.353Z" fill="url(#paint83_linear_206_27)"/>
<path d="M267.104 842.413C267.001 842.413 266.899 842.413 266.797 842.31C266.387 842.106 266.182 841.697 266.387 841.287C267.001 839.957 267.411 838.525 267.616 837.093C267.718 836.683 268.128 836.377 268.537 836.479C268.947 836.581 269.254 836.99 269.152 837.4C268.947 839.037 268.435 840.571 267.821 842.004C267.718 842.208 267.411 842.413 267.104 842.413Z" fill="url(#paint84_linear_206_27)"/>
<path d="M436.269 846.301L430.022 838.934C431.456 837.297 432.378 835.149 432.378 832.796C432.378 827.68 428.179 823.485 423.059 823.485C417.939 823.485 413.741 827.68 413.741 832.796C413.741 837.911 417.939 842.106 423.059 842.106C424.39 842.106 425.722 841.799 426.95 841.287L433.402 848.858C433.811 849.268 434.323 849.574 434.938 849.574C435.45 849.574 435.859 849.37 436.269 849.063C436.883 848.347 436.986 847.119 436.269 846.301ZM422.957 827.169C426.029 827.169 428.589 829.726 428.589 832.796C428.589 835.865 426.029 838.423 422.957 838.423C419.885 838.423 417.325 835.865 417.325 832.796C417.325 829.726 419.885 827.169 422.957 827.169Z" fill="url(#paint85_linear_206_27)"/>
<path d="M148.442 918.02C128.167 917.918 111.68 901.343 111.783 881.086C111.885 860.829 128.474 844.357 148.749 844.459C169.024 844.561 185.511 861.136 185.408 881.393C185.306 901.65 168.717 918.02 148.442 918.02ZM148.749 848.347C130.624 848.244 115.879 862.875 115.776 880.984C115.674 899.093 130.317 913.825 148.442 913.928C166.567 914.03 181.312 899.4 181.415 881.291C181.517 863.284 166.874 848.449 148.749 848.347Z" fill="url(#paint86_linear_206_27)"/>
<path d="M148.34 925.693C123.764 925.591 103.898 905.538 104 880.984H107.38C107.277 903.594 125.607 922.215 148.34 922.317C170.97 922.42 189.607 904.106 189.709 881.393C189.812 858.783 171.482 840.162 148.749 840.06V836.684C173.325 836.786 193.191 856.839 193.088 881.393C192.986 905.948 172.916 925.796 148.34 925.693Z" fill="url(#paint87_linear_206_27)"/>
<path d="M185.511 918.736L183.156 916.281C202.407 897.251 202.509 866.149 183.463 846.915L185.921 844.562C206.196 865.024 206.093 898.377 185.511 918.736Z" fill="url(#paint88_linear_206_27)"/>
<path d="M218.074 877.199L199.54 877.096V876.687L218.074 876.789V877.199Z" fill="url(#paint89_linear_206_27)"/>
<path d="M227.802 891.931L190.528 891.727V891.317L227.802 891.522V891.931Z" fill="url(#paint90_linear_206_27)"/>
<path d="M237.94 905.027L174.759 904.72V904.413L237.94 904.72V905.027Z" fill="url(#paint91_linear_206_27)"/>
<path d="M216.026 877.199C216.026 876.073 216.947 875.152 218.074 875.152C219.2 875.152 220.122 876.073 220.122 877.199C220.122 878.324 219.2 879.245 218.074 879.245C216.947 879.142 216.026 878.222 216.026 877.199Z" fill="url(#paint92_linear_206_27)"/>
<path d="M225.754 891.42C225.754 890.294 226.676 889.374 227.802 889.374C228.928 889.374 229.85 890.294 229.85 891.42C229.85 892.545 228.928 893.466 227.802 893.466C226.676 893.466 225.754 892.545 225.754 891.42Z" fill="url(#paint93_linear_206_27)"/>
<path d="M235.994 904.822C235.994 903.697 236.916 902.776 238.042 902.776C239.168 902.776 240.09 903.697 240.09 904.822C240.09 905.947 239.168 906.868 238.042 906.868C236.813 906.868 235.892 905.947 235.994 904.822Z" fill="url(#paint94_linear_206_27)"/>
<path d="M163.495 873.106H160.935V869.832C160.935 863.284 155.405 857.964 148.749 857.964C141.991 857.964 136.563 863.284 136.563 869.832V873.106H134.311C132.979 873.106 131.853 874.232 131.853 875.562V899.093C131.853 900.423 132.979 901.549 134.311 901.549H163.597C164.928 901.549 166.055 900.423 166.055 899.093V875.562C165.952 874.129 164.826 873.106 163.495 873.106ZM151.309 890.806C151.309 892.136 150.183 893.261 148.851 893.261C147.52 893.261 146.394 892.136 146.394 890.806V883.644C146.394 882.314 147.52 881.189 148.851 881.189C150.183 881.189 151.309 882.314 151.309 883.644V890.806ZM156.122 873.106H141.274V869.832C141.274 865.945 144.551 862.773 148.647 862.773C152.743 862.773 156.019 865.945 156.019 869.832V873.106H156.122Z" fill="url(#paint95_linear_206_27)"/>
<path d="M330.08 778.878H351.072C351.993 778.878 352.813 778.06 352.813 777.139V760.258C352.813 759.337 351.993 758.518 351.072 758.518H335.2V756.677C335.2 753.914 337.555 751.561 340.525 751.561C342.88 751.561 344.928 753.096 345.645 755.142C345.747 755.551 346.054 755.858 346.464 755.961C346.873 756.063 347.283 756.063 347.59 755.858L348.307 755.449C348.819 755.142 349.126 754.426 348.921 753.812C347.692 750.334 344.416 747.98 340.627 747.98C335.814 747.98 331.821 751.766 331.821 756.575V758.416H330.182C329.261 758.416 328.441 759.235 328.441 760.155V777.037C328.339 778.06 329.158 778.878 330.08 778.878ZM338.784 766.192C338.784 765.271 339.603 764.452 340.525 764.452C341.446 764.452 342.265 765.271 342.265 766.192V771.307C342.265 772.228 341.446 773.046 340.525 773.046C339.603 773.046 338.784 772.228 338.784 771.307V766.192Z" fill="url(#paint96_linear_206_27)"/>
<path d="M366.329 739.693C366.125 739.489 365.92 739.386 365.715 739.284L364.691 738.875C349.126 732.839 332.025 732.839 316.358 738.875L316.153 738.977C314.413 739.693 313.286 741.33 313.286 743.172V780.617C313.286 782.05 314.003 783.38 315.129 784.096L338.272 799.443C338.989 799.852 339.705 800.159 340.525 800.159C341.344 800.159 342.061 799.954 342.777 799.443L365.817 784.096C367.046 783.278 367.763 781.947 367.763 780.413V741.637C367.865 740.716 367.149 739.898 366.329 739.693ZM317.28 743.07C317.28 742.865 317.382 742.763 317.485 742.66C324.857 739.796 332.742 738.363 340.525 738.363C348.307 738.363 356.089 739.796 363.565 742.66L363.769 742.763V780.413C363.769 780.515 363.667 780.617 363.565 780.72L340.729 795.862C340.627 795.964 340.422 795.964 340.32 795.862L317.485 780.72C317.382 780.617 317.28 780.515 317.28 780.413V743.07Z" fill="url(#paint97_linear_206_27)"/>
<path d="M438.521 858.476H411.897L398.585 835.354L411.897 812.231H438.521L451.833 835.354L438.521 858.476ZM412.512 857.453H438.009L450.707 835.456L438.009 813.459H412.512L399.814 835.456L412.512 857.453Z" fill="url(#paint98_linear_206_27)"/>
<path d="M78.483 822.053L90.8734 843.436L78.483 864.819H53.8046L41.4142 843.436L53.8046 822.053H78.483ZM79.0974 820.928H53.0878L40.083 843.436L53.0878 865.944H79.0974L92.1022 843.436L79.0974 820.928Z" fill="url(#paint99_linear_206_27)"/>
<path d="M68.1407 844.868H67.2191C67.1167 844.868 67.1167 844.766 67.1167 844.766C67.0143 844.459 66.9119 844.152 66.7071 843.845C66.7071 843.743 66.7071 843.743 66.7071 843.641L67.4239 842.924C67.6287 842.72 67.8335 842.311 67.8335 842.004C67.8335 841.697 67.7311 841.287 67.4239 841.083L65.9903 839.651C65.7855 839.446 65.3759 839.241 65.0687 839.241C64.7615 839.241 64.3519 839.344 64.1471 839.651L63.4303 840.367C63.3279 840.469 63.3279 840.367 63.2255 840.367C62.9183 840.264 62.6111 840.06 62.3039 839.957C62.3039 839.957 62.2015 839.957 62.2015 839.855V838.934C62.2015 838.218 61.5871 837.604 60.8703 837.604H58.8223C58.1055 837.604 57.4911 838.218 57.4911 838.934V839.855C57.4911 839.957 57.3887 839.957 57.3887 839.957C57.0815 840.06 56.7743 840.162 56.4671 840.367C56.4671 840.367 56.3647 840.367 56.2623 840.367L55.5455 839.651C55.3407 839.446 54.9311 839.241 54.6239 839.241C54.3167 839.241 53.9071 839.344 53.7023 839.651L52.2687 841.083C51.7567 841.594 51.7567 842.413 52.2687 842.924L52.9855 843.641C52.9855 843.641 52.9855 843.743 52.9855 843.845C52.8831 844.152 52.6783 844.459 52.5759 844.766L52.4735 844.868H51.5519C50.8351 844.868 50.2207 845.482 50.2207 846.198V848.245C50.2207 848.961 50.8351 849.575 51.5519 849.575H52.4735C52.5759 849.575 52.5759 849.575 52.5759 849.677C52.6783 849.984 52.7807 850.291 52.9855 850.7V850.802L52.3711 851.416C51.8591 851.928 51.8591 852.746 52.3711 853.258L53.8047 854.69C54.0095 854.895 54.4191 855.099 54.7263 855.099C55.0335 855.099 55.4431 854.997 55.6479 854.69L56.2623 854.076H56.3647C56.6719 854.281 56.9791 854.383 57.3887 854.485C57.4911 854.485 57.4911 854.588 57.4911 854.588V855.509C57.4911 856.225 58.1055 856.839 58.8223 856.839H60.8703C61.5871 856.839 62.2015 856.225 62.2015 855.509V854.588C62.2015 854.485 62.2015 854.485 62.3039 854.485C62.6111 854.383 62.9183 854.281 63.3279 854.076H63.4303L64.0447 854.69C64.2495 854.895 64.6591 855.099 64.9663 855.099C65.2735 855.099 65.6831 854.997 65.8879 854.69L67.3215 853.258C67.5263 853.053 67.7311 852.644 67.7311 852.337C67.7311 852.03 67.6287 851.621 67.3215 851.416L66.7071 850.802V850.7C66.9119 850.393 67.0143 850.086 67.1167 849.677L67.2191 849.575H68.1407C68.8575 849.575 69.4719 848.961 69.4719 848.245V846.198C69.4719 845.38 68.8575 844.868 68.1407 844.868ZM63.6351 847.221C63.6351 849.268 61.9967 850.905 59.9487 850.905C57.9007 850.905 56.2623 849.268 56.2623 847.221C56.2623 845.175 57.9007 843.538 59.9487 843.538C61.8943 843.436 63.6351 845.175 63.6351 847.221ZM80.0191 837.195H79.4047C79.3023 837.195 79.3023 837.093 79.3023 837.093C79.1999 836.888 79.0975 836.684 79.0975 836.479V836.377L79.5071 835.967C79.7119 835.763 79.8143 835.558 79.8143 835.353C79.8143 835.149 79.7119 834.842 79.5071 834.74L78.4831 833.717C78.2783 833.512 78.0735 833.41 77.8687 833.41C77.6639 833.41 77.3567 833.512 77.2543 833.717L76.7423 834.228H76.6399C76.4351 834.126 76.2303 834.023 76.0255 834.023C76.0255 834.023 75.9231 834.023 75.9231 833.921V833.205C75.9231 832.693 75.5135 832.284 75.0015 832.284H73.5679C73.0559 832.284 72.6463 832.693 72.6463 833.205V833.819C72.6463 833.921 72.5439 833.921 72.5439 833.921C72.3391 834.023 72.1343 834.126 71.9295 834.126H71.8271L71.3151 833.614C71.1103 833.41 70.9055 833.307 70.7007 833.307C70.4959 833.307 70.1887 833.41 70.0863 833.614L69.0623 834.637C68.7551 834.944 68.7551 835.558 69.0623 835.967L69.4719 836.377V836.479C69.3695 836.684 69.2671 836.888 69.2671 837.093C69.2671 837.093 69.2671 837.195 69.1647 837.195H68.5503C68.0383 837.195 67.6287 837.604 67.6287 838.116V839.548C67.6287 840.06 68.0383 840.469 68.5503 840.469H69.1647C69.1647 840.469 69.2671 840.469 69.2671 840.571C69.3695 840.776 69.4719 840.981 69.5743 841.287V841.39L69.1647 841.799C68.8575 842.106 68.8575 842.72 69.1647 843.129L70.1887 844.152C70.3935 844.357 70.5983 844.459 70.8031 844.459C71.0079 844.459 71.3151 844.357 71.4175 844.152L71.8271 843.743H71.9295C72.1343 843.845 72.3391 843.948 72.6463 844.05L72.7487 844.152V844.766C72.7487 845.278 73.1583 845.687 73.6703 845.687H75.1039C75.6159 845.687 76.0255 845.278 76.0255 844.766V844.152C76.0255 844.152 76.0255 844.05 76.1279 844.05C76.3327 843.948 76.5375 843.845 76.8447 843.743H76.9471L77.3567 844.152C77.5615 844.357 77.7663 844.459 77.9711 844.459C78.1759 844.459 78.4831 844.357 78.5855 844.152L79.6095 843.129C79.8143 842.924 79.9167 842.72 79.9167 842.515C79.9167 842.311 79.8143 842.004 79.6095 841.901L79.1999 841.492V841.39C79.3023 841.185 79.4047 840.981 79.5071 840.674C79.5071 840.674 79.5071 840.571 79.6095 840.571H80.2239C80.7359 840.571 81.1455 840.162 81.1455 839.651V838.218C80.9407 837.604 80.5311 837.195 80.0191 837.195ZM76.9471 838.832C76.9471 840.264 75.8207 841.39 74.3871 841.39C72.9535 841.39 71.8271 840.264 71.8271 838.832C71.8271 837.4 72.9535 836.274 74.3871 836.274C75.8207 836.274 76.9471 837.4 76.9471 838.832Z" fill="url(#paint100_linear_206_27)"/>
<path opacity="0.5" d="M412 812.027L411.385 813.05L398.688 835.046H373.293L363.36 817.756L360.8 813.357L360.595 812.947L360.185 812.231H336.121C335.917 811.515 335.302 811.003 334.483 811.003C333.561 811.003 332.742 811.72 332.742 812.743C332.742 813.663 333.459 814.482 334.483 814.482C335.2 814.482 335.814 813.97 336.121 813.357H359.571L372.269 835.353L359.571 857.35H334.073L333.971 857.248V858.475H360.083L372.985 836.172H399.302L412.614 813.05L412 812.027Z" fill="url(#paint101_linear_206_27)"/>
<g opacity="0.2">
<path d="M183.852 758.313H150.163L133.369 729.155L150.163 699.997H183.852L200.646 729.155L183.852 758.313ZM150.777 757.29H183.238L199.52 729.155L183.238 701.02H150.777L134.496 729.155L150.777 757.29Z" fill="url(#paint102_linear_206_27)"/>
</g>
<g opacity="0.2">
<path d="M84.4222 930.501H50.7326L33.939 901.343L50.7326 872.185H84.4222L101.216 901.343L84.4222 930.501ZM51.347 929.478H83.8078L100.089 901.343L83.8078 873.31H51.347L35.0654 901.445L51.347 929.478Z" fill="url(#paint103_linear_206_27)"/>
</g>
<g opacity="0.2">
<path d="M283.283 758.518H249.593L232.8 729.36L249.593 700.201H283.283L300.077 729.36L283.283 758.518ZM250.208 757.495H282.669L298.95 729.36L282.669 701.224H250.208L233.926 729.36L250.208 757.495Z" fill="white"/>
</g>
<g opacity="0.2">
<path d="M283.283 938.277H249.593L232.8 909.119L249.593 879.96H283.283L300.077 909.119L283.283 938.277ZM250.208 937.254H282.669L298.95 909.119L282.669 880.984H250.208L233.926 909.119L250.208 937.254Z" fill="white"/>
</g>
<g opacity="0.2">
<path d="M354.246 972.347H320.557L303.763 943.188L320.557 914.03H354.246L371.04 943.188L354.246 972.347ZM321.171 971.324H353.632L369.914 943.188L353.632 915.053H321.171L304.992 943.291L321.171 971.324Z" fill="white"/>
</g>
</g>
</g>
<defs>
<linearGradient id="paint0_linear_206_27" x1="440.156" y1="858.017" x2="200.175" y2="858.017" gradientUnits="userSpaceOnUse">
<stop stop-color="#83A4D4"/>
<stop offset="0.9543" stop-color="#B4F7FD"/>
<stop offset="0.9994" stop-color="#B6FBFF"/>
</linearGradient>
<linearGradient id="paint1_linear_206_27" x1="440.16" y1="880.435" x2="200.171" y2="880.435" gradientUnits="userSpaceOnUse">
<stop stop-color="#83A4D4"/>
<stop offset="0.9543" stop-color="#B4F7FD"/>
<stop offset="0.9994" stop-color="#B6FBFF"/>
</linearGradient>
<linearGradient id="paint2_linear_206_27" x1="440.156" y1="914.259" x2="200.18" y2="914.259" gradientUnits="userSpaceOnUse">
<stop stop-color="#83A4D4"/>
<stop offset="0.9543" stop-color="#B4F7FD"/>
<stop offset="0.9994" stop-color="#B6FBFF"/>
</linearGradient>
<linearGradient id="paint3_linear_206_27" x1="440.483" y1="902.853" x2="197.672" y2="902.853" gradientUnits="userSpaceOnUse">
<stop stop-color="#83A4D4"/>
<stop offset="0.9543" stop-color="#B4F7FD"/>
<stop offset="0.9994" stop-color="#B6FBFF"/>
</linearGradient>
<linearGradient id="paint4_linear_206_27" x1="440.49" y1="869.291" x2="197.639" y2="869.291" gradientUnits="userSpaceOnUse">
<stop stop-color="#83A4D4"/>
<stop offset="0.9543" stop-color="#B4F7FD"/>
<stop offset="0.9994" stop-color="#B6FBFF"/>
</linearGradient>
<linearGradient id="paint5_linear_206_27" x1="429.802" y1="902.984" x2="278.685" y2="902.984" gradientUnits="userSpaceOnUse">
<stop stop-color="#83A4D4"/>
<stop offset="0.9543" stop-color="#B4F7FD"/>
<stop offset="0.9994" stop-color="#B6FBFF"/>
</linearGradient>
<linearGradient id="paint6_linear_206_27" x1="237.52" y1="829.214" x2="291.134" y2="829.214" gradientUnits="userSpaceOnUse">
<stop stop-color="#83A4D4"/>
<stop offset="0.9543" stop-color="#B4F7FD"/>
<stop offset="0.9994" stop-color="#B6FBFF"/>
</linearGradient>
<linearGradient id="paint7_linear_206_27" x1="279.934" y1="857.824" x2="506.185" y2="857.824" gradientUnits="userSpaceOnUse">
<stop stop-color="#83A4D4"/>
<stop offset="0.9543" stop-color="#B4F7FD"/>
<stop offset="0.9994" stop-color="#B6FBFF"/>
</linearGradient>
<linearGradient id="paint8_linear_206_27" x1="279.911" y1="857.824" x2="506.227" y2="857.824" gradientUnits="userSpaceOnUse">
<stop stop-color="#83A4D4"/>
<stop offset="0.9543" stop-color="#B4F7FD"/>
<stop offset="0.9994" stop-color="#B6FBFF"/>
</linearGradient>
<linearGradient id="paint9_linear_206_27" x1="279.942" y1="926.152" x2="506.192" y2="926.152" gradientUnits="userSpaceOnUse">
<stop stop-color="#83A4D4"/>
<stop offset="0.9543" stop-color="#B4F7FD"/>
<stop offset="0.9994" stop-color="#B6FBFF"/>
</linearGradient>
<linearGradient id="paint10_linear_206_27" x1="279.917" y1="902.985" x2="506.236" y2="902.985" gradientUnits="userSpaceOnUse">
<stop stop-color="#83A4D4"/>
<stop offset="0.9543" stop-color="#B4F7FD"/>
<stop offset="0.9994" stop-color="#B6FBFF"/>
</linearGradient>
<linearGradient id="paint11_linear_206_27" x1="279.911" y1="902.985" x2="506.227" y2="902.985" gradientUnits="userSpaceOnUse">
<stop stop-color="#83A4D4"/>
<stop offset="0.9543" stop-color="#B4F7FD"/>
<stop offset="0.9994" stop-color="#B6FBFF"/>
</linearGradient>
<linearGradient id="paint12_linear_206_27" x1="280.379" y1="857.824" x2="506.698" y2="857.824" gradientUnits="userSpaceOnUse">
<stop stop-color="#83A4D4"/>
<stop offset="0.9543" stop-color="#B4F7FD"/>
<stop offset="0.9994" stop-color="#B6FBFF"/>
</linearGradient>
<linearGradient id="paint13_linear_206_27" x1="293.69" y1="835.404" x2="519.941" y2="835.404" gradientUnits="userSpaceOnUse">
<stop stop-color="#83A4D4"/>
<stop offset="0.9543" stop-color="#B4F7FD"/>
<stop offset="0.9994" stop-color="#B6FBFF"/>
</linearGradient>
<linearGradient id="paint14_linear_206_27" x1="54.0302" y1="772.021" x2="97.7351" y2="772.021" gradientUnits="userSpaceOnUse">
<stop stop-color="#83A4D4"/>
<stop offset="0.9543" stop-color="#B4F7FD"/>
<stop offset="0.9994" stop-color="#B6FBFF"/>
</linearGradient>
<linearGradient id="paint15_linear_206_27" x1="103.684" y1="829.494" x2="147.337" y2="829.494" gradientUnits="userSpaceOnUse">
<stop stop-color="#83A4D4"/>
<stop offset="0.9543" stop-color="#B4F7FD"/>
<stop offset="0.9994" stop-color="#B6FBFF"/>
</linearGradient>
<linearGradient id="paint16_linear_206_27" x1="-14.5221" y1="757.677" x2="148.09" y2="757.433" gradientUnits="userSpaceOnUse">
<stop stop-color="#83A4D4"/>
<stop offset="0.9543" stop-color="#B4F7FD"/>
<stop offset="0.9994" stop-color="#B6FBFF"/>
</linearGradient>
<linearGradient id="paint17_linear_206_27" x1="199.8" y1="756.366" x2="255.138" y2="756.366" gradientUnits="userSpaceOnUse">
<stop stop-color="#83A4D4"/>
<stop offset="0.9543" stop-color="#B4F7FD"/>
<stop offset="0.9994" stop-color="#B6FBFF"/>
</linearGradient>
<linearGradient id="paint18_linear_206_27" x1="0.677919" y1="729.29" x2="32.382" y2="729.29" gradientUnits="userSpaceOnUse">
<stop stop-color="#83A4D4"/>
<stop offset="0.9543" stop-color="#B4F7FD"/>
<stop offset="0.9994" stop-color="#B6FBFF"/>
</linearGradient>
<linearGradient id="paint19_linear_206_27" x1="52.6873" y1="800.19" x2="98.1918" y2="800.19" gradientUnits="userSpaceOnUse">
<stop stop-color="#83A4D4"/>
<stop offset="0.9543" stop-color="#B4F7FD"/>
<stop offset="0.9994" stop-color="#B6FBFF"/>
</linearGradient>
<linearGradient id="paint20_linear_206_27" x1="18.1844" y1="696.465" x2="212.577" y2="891.028" gradientUnits="userSpaceOnUse">
<stop stop-color="#83A4D4"/>
<stop offset="0.9543" stop-color="#B4F7FD"/>
<stop offset="0.9994" stop-color="#B6FBFF"/>
</linearGradient>
<linearGradient id="paint21_linear_206_27" x1="-25.5706" y1="740.198" x2="168.808" y2="934.747" gradientUnits="userSpaceOnUse">
<stop stop-color="#83A4D4"/>
<stop offset="0.9543" stop-color="#B4F7FD"/>
<stop offset="0.9994" stop-color="#B6FBFF"/>
</linearGradient>
<linearGradient id="paint22_linear_206_27" x1="37.0912" y1="677.574" x2="231.485" y2="872.139" gradientUnits="userSpaceOnUse">
<stop stop-color="#83A4D4"/>
<stop offset="0.9543" stop-color="#B4F7FD"/>
<stop offset="0.9994" stop-color="#B6FBFF"/>
</linearGradient>
<linearGradient id="paint23_linear_206_27" x1="8.32909" y1="706.312" x2="202.721" y2="900.875" gradientUnits="userSpaceOnUse">
<stop stop-color="#83A4D4"/>
<stop offset="0.9543" stop-color="#B4F7FD"/>
<stop offset="0.9994" stop-color="#B6FBFF"/>
</linearGradient>
<linearGradient id="paint24_linear_206_27" x1="-2.1756" y1="716.807" x2="192.217" y2="911.37" gradientUnits="userSpaceOnUse">
<stop stop-color="#83A4D4"/>
<stop offset="0.9543" stop-color="#B4F7FD"/>
<stop offset="0.9994" stop-color="#B6FBFF"/>
</linearGradient>
<linearGradient id="paint25_linear_206_27" x1="56.0239" y1="658.657" x2="250.417" y2="853.221" gradientUnits="userSpaceOnUse">
<stop stop-color="#83A4D4"/>
<stop offset="0.9543" stop-color="#B4F7FD"/>
<stop offset="0.9994" stop-color="#B6FBFF"/>
</linearGradient>
<linearGradient id="paint26_linear_206_27" x1="81.5741" y1="633.139" x2="275.961" y2="827.696" gradientUnits="userSpaceOnUse">
<stop stop-color="#83A4D4"/>
<stop offset="0.9543" stop-color="#B4F7FD"/>
<stop offset="0.9994" stop-color="#B6FBFF"/>
</linearGradient>
<linearGradient id="paint27_linear_206_27" x1="78.3408" y1="636.36" x2="272.734" y2="830.924" gradientUnits="userSpaceOnUse">
<stop stop-color="#83A4D4"/>
<stop offset="0.9543" stop-color="#B4F7FD"/>
<stop offset="0.9994" stop-color="#B6FBFF"/>
</linearGradient>
<linearGradient id="paint28_linear_206_27" x1="-31.4127" y1="746.018" x2="162.983" y2="940.583" gradientUnits="userSpaceOnUse">
<stop stop-color="#83A4D4"/>
<stop offset="0.9543" stop-color="#B4F7FD"/>
<stop offset="0.9994" stop-color="#B6FBFF"/>
</linearGradient>
<linearGradient id="paint29_linear_206_27" x1="184.92" y1="815.106" x2="-36.8471" y2="815.106" gradientUnits="userSpaceOnUse">
<stop stop-color="#83A4D4"/>
<stop offset="0.9543" stop-color="#B4F7FD"/>
<stop offset="0.9994" stop-color="#B6FBFF"/>
</linearGradient>
<linearGradient id="paint30_linear_206_27" x1="184.923" y1="815.106" x2="-36.849" y2="815.106" gradientUnits="userSpaceOnUse">
<stop stop-color="#83A4D4"/>
<stop offset="0.9543" stop-color="#B4F7FD"/>
<stop offset="0.9994" stop-color="#B6FBFF"/>
</linearGradient>
<linearGradient id="paint31_linear_206_27" x1="184.92" y1="872.528" x2="-36.8471" y2="872.528" gradientUnits="userSpaceOnUse">
<stop stop-color="#83A4D4"/>
<stop offset="0.9543" stop-color="#B4F7FD"/>
<stop offset="0.9994" stop-color="#B6FBFF"/>
</linearGradient>
<linearGradient id="paint32_linear_206_27" x1="184.907" y1="786.395" x2="-36.8262" y2="786.395" gradientUnits="userSpaceOnUse">
<stop stop-color="#83A4D4"/>
<stop offset="0.9543" stop-color="#B4F7FD"/>
<stop offset="0.9994" stop-color="#B6FBFF"/>
</linearGradient>
<linearGradient id="paint33_linear_206_27" x1="184.907" y1="843.817" x2="-36.8262" y2="843.817" gradientUnits="userSpaceOnUse">
<stop stop-color="#83A4D4"/>
<stop offset="0.9543" stop-color="#B4F7FD"/>
<stop offset="0.9994" stop-color="#B6FBFF"/>
</linearGradient>
<linearGradient id="paint34_linear_206_27" x1="184.929" y1="786.395" x2="-36.8775" y2="786.395" gradientUnits="userSpaceOnUse">
<stop stop-color="#83A4D4"/>
<stop offset="0.9543" stop-color="#B4F7FD"/>
<stop offset="0.9994" stop-color="#B6FBFF"/>
</linearGradient>
<linearGradient id="paint35_linear_206_27" x1="184.929" y1="728.973" x2="-36.8775" y2="728.973" gradientUnits="userSpaceOnUse">
<stop stop-color="#83A4D4"/>
<stop offset="0.9543" stop-color="#B4F7FD"/>
<stop offset="0.9994" stop-color="#B6FBFF"/>
</linearGradient>
<linearGradient id="paint36_linear_206_27" x1="184.91" y1="728.973" x2="-36.831" y2="728.973" gradientUnits="userSpaceOnUse">
<stop stop-color="#83A4D4"/>
<stop offset="0.9543" stop-color="#B4F7FD"/>
<stop offset="0.9994" stop-color="#B6FBFF"/>
</linearGradient>
<linearGradient id="paint37_linear_206_27" x1="201.814" y1="786.395" x2="198.5" y2="786.395" gradientUnits="userSpaceOnUse">
<stop stop-color="#83A4D4"/>
<stop offset="0.9543" stop-color="#B4F7FD"/>
<stop offset="0.9994" stop-color="#B6FBFF"/>
</linearGradient>
<linearGradient id="paint38_linear_206_27" x1="258.516" y1="786.395" x2="255.202" y2="786.395" gradientUnits="userSpaceOnUse">
<stop stop-color="#83A4D4"/>
<stop offset="0.9543" stop-color="#B4F7FD"/>
<stop offset="0.9994" stop-color="#B6FBFF"/>
</linearGradient>
<linearGradient id="paint39_linear_206_27" x1="184.921" y1="786.395" x2="-36.8469" y2="786.395" gradientUnits="userSpaceOnUse">
<stop stop-color="#83A4D4"/>
<stop offset="0.9543" stop-color="#B4F7FD"/>
<stop offset="0.9994" stop-color="#B6FBFF"/>
</linearGradient>
<linearGradient id="paint40_linear_206_27" x1="184.92" y1="757.685" x2="-36.8471" y2="757.685" gradientUnits="userSpaceOnUse">
<stop stop-color="#83A4D4"/>
<stop offset="0.9543" stop-color="#B4F7FD"/>
<stop offset="0.9994" stop-color="#B6FBFF"/>
</linearGradient>
<linearGradient id="paint41_linear_206_27" x1="184.923" y1="757.685" x2="-36.849" y2="757.685" gradientUnits="userSpaceOnUse">
<stop stop-color="#83A4D4"/>
<stop offset="0.9543" stop-color="#B4F7FD"/>
<stop offset="0.9994" stop-color="#B6FBFF"/>
</linearGradient>
<linearGradient id="paint42_linear_206_27" x1="184.919" y1="757.685" x2="-36.8209" y2="757.685" gradientUnits="userSpaceOnUse">
<stop stop-color="#83A4D4"/>
<stop offset="0.9543" stop-color="#B4F7FD"/>
<stop offset="0.9994" stop-color="#B6FBFF"/>
</linearGradient>
<linearGradient id="paint43_linear_206_27" x1="201.813" y1="728.973" x2="198.5" y2="728.973" gradientUnits="userSpaceOnUse">
<stop stop-color="#83A4D4"/>
<stop offset="0.9543" stop-color="#B4F7FD"/>
<stop offset="0.9994" stop-color="#B6FBFF"/>
</linearGradient>
<linearGradient id="paint44_linear_206_27" x1="184.921" y1="757.685" x2="-36.8546" y2="757.685" gradientUnits="userSpaceOnUse">
<stop stop-color="#83A4D4"/>
<stop offset="0.9543" stop-color="#B4F7FD"/>
<stop offset="0.9994" stop-color="#B6FBFF"/>
</linearGradient>
<linearGradient id="paint45_linear_206_27" x1="184.929" y1="843.817" x2="-36.8775" y2="843.817" gradientUnits="userSpaceOnUse">
<stop stop-color="#83A4D4"/>
<stop offset="0.9543" stop-color="#B4F7FD"/>
<stop offset="0.9994" stop-color="#B6FBFF"/>
</linearGradient>
<linearGradient id="paint46_linear_206_27" x1="184.921" y1="815.106" x2="-36.8546" y2="815.106" gradientUnits="userSpaceOnUse">
<stop stop-color="#83A4D4"/>
<stop offset="0.9543" stop-color="#B4F7FD"/>
<stop offset="0.9994" stop-color="#B6FBFF"/>
</linearGradient>
<linearGradient id="paint47_linear_206_27" x1="184.919" y1="815.106" x2="-36.8209" y2="815.106" gradientUnits="userSpaceOnUse">
<stop stop-color="#83A4D4"/>
<stop offset="0.9543" stop-color="#B4F7FD"/>
<stop offset="0.9994" stop-color="#B6FBFF"/>
</linearGradient>
<linearGradient id="paint48_linear_206_27" x1="184.921" y1="728.973" x2="-36.8469" y2="728.973" gradientUnits="userSpaceOnUse">
<stop stop-color="#83A4D4"/>
<stop offset="0.9543" stop-color="#B4F7FD"/>
<stop offset="0.9994" stop-color="#B6FBFF"/>
</linearGradient>
<linearGradient id="paint49_linear_206_27" x1="184.923" y1="700.731" x2="-36.849" y2="700.731" gradientUnits="userSpaceOnUse">
<stop stop-color="#83A4D4"/>
<stop offset="0.9543" stop-color="#B4F7FD"/>
<stop offset="0.9994" stop-color="#B6FBFF"/>
</linearGradient>
<linearGradient id="paint50_linear_206_27" x1="96.0374" y1="737.284" x2="152.979" y2="794.275" gradientUnits="userSpaceOnUse">
<stop stop-color="#83A4D4"/>
<stop offset="0.9543" stop-color="#B4F7FD"/>
<stop offset="0.9994" stop-color="#B6FBFF"/>
</linearGradient>
<linearGradient id="paint51_linear_206_27" x1="96.2033" y1="737.12" x2="153.142" y2="794.108" gradientUnits="userSpaceOnUse">
<stop stop-color="#83A4D4"/>
<stop offset="0.9543" stop-color="#B4F7FD"/>
<stop offset="0.9994" stop-color="#B6FBFF"/>
</linearGradient>
<linearGradient id="paint52_linear_206_27" x1="296.991" y1="844.401" x2="331.643" y2="844.401" gradientUnits="userSpaceOnUse">
<stop stop-color="#83A4D4"/>
<stop offset="0.9543" stop-color="#B4F7FD"/>
<stop offset="0.9994" stop-color="#B6FBFF"/>
</linearGradient>
<linearGradient id="paint53_linear_206_27" x1="339.131" y1="899.94" x2="410.52" y2="858.905" gradientUnits="userSpaceOnUse">
<stop stop-color="#83A4D4"/>
<stop offset="0.9543" stop-color="#B4F7FD"/>
<stop offset="0.9994" stop-color="#B6FBFF"/>
</linearGradient>
<linearGradient id="paint54_linear_206_27" x1="190.252" y1="717.33" x2="261.056" y2="788.196" gradientUnits="userSpaceOnUse">
<stop stop-color="#83A4D4"/>
<stop offset="0.9543" stop-color="#B4F7FD"/>
<stop offset="0.9994" stop-color="#B6FBFF"/>
</linearGradient>
<linearGradient id="paint55_linear_206_27" x1="190.189" y1="717.394" x2="260.992" y2="788.259" gradientUnits="userSpaceOnUse">
<stop stop-color="#83A4D4"/>
<stop offset="0.9543" stop-color="#B4F7FD"/>
<stop offset="0.9994" stop-color="#B6FBFF"/>
</linearGradient>
<linearGradient id="paint56_linear_206_27" x1="187.662" y1="725.126" x2="240.538" y2="778.049" gradientUnits="userSpaceOnUse">
<stop stop-color="#83A4D4"/>
<stop offset="0.9543" stop-color="#B4F7FD"/>
<stop offset="0.9994" stop-color="#B6FBFF"/>
</linearGradient>
<linearGradient id="paint57_linear_206_27" x1="192.726" y1="720.066" x2="245.603" y2="772.989" gradientUnits="userSpaceOnUse">
<stop stop-color="#83A4D4"/>
<stop offset="0.9543" stop-color="#B4F7FD"/>
<stop offset="0.9994" stop-color="#B6FBFF"/>
</linearGradient>
<linearGradient id="paint58_linear_206_27" x1="95.8374" y1="794.873" x2="149.765" y2="848.848" gradientUnits="userSpaceOnUse">
<stop stop-color="#83A4D4"/>
<stop offset="0.9543" stop-color="#B4F7FD"/>
<stop offset="0.9994" stop-color="#B6FBFF"/>
</linearGradient>
<linearGradient id="paint59_linear_206_27" x1="99.1046" y1="791.609" x2="153.033" y2="845.584" gradientUnits="userSpaceOnUse">
<stop stop-color="#83A4D4"/>
<stop offset="0.9543" stop-color="#B4F7FD"/>
<stop offset="0.9994" stop-color="#B6FBFF"/>
</linearGradient>
<linearGradient id="paint60_linear_206_27" x1="92.3792" y1="798.326" x2="146.309" y2="852.304" gradientUnits="userSpaceOnUse">
<stop stop-color="#83A4D4"/>
<stop offset="0.9543" stop-color="#B4F7FD"/>
<stop offset="0.9994" stop-color="#B6FBFF"/>
</linearGradient>
<linearGradient id="paint61_linear_206_27" x1="52.6896" y1="727.318" x2="83.1848" y2="727.318" gradientUnits="userSpaceOnUse">
<stop stop-color="#83A4D4"/>
<stop offset="0.9543" stop-color="#B4F7FD"/>
<stop offset="0.9994" stop-color="#B6FBFF"/>
</linearGradient>
<linearGradient id="paint62_linear_206_27" x1="365.638" y1="882.235" x2="404.555" y2="921.186" gradientUnits="userSpaceOnUse">
<stop stop-color="#83A4D4"/>
<stop offset="0.9543" stop-color="#B4F7FD"/>
<stop offset="0.9994" stop-color="#B6FBFF"/>
</linearGradient>
<linearGradient id="paint63_linear_206_27" x1="250.921" y1="834.446" x2="269.23" y2="852.771" gradientUnits="userSpaceOnUse">
<stop stop-color="#83A4D4"/>
<stop offset="0.9543" stop-color="#B4F7FD"/>
<stop offset="0.9994" stop-color="#B6FBFF"/>
</linearGradient>
<linearGradient id="paint64_linear_206_27" x1="265.347" y1="824.581" x2="285.971" y2="840.266" gradientUnits="userSpaceOnUse">
<stop stop-color="#83A4D4"/>
<stop offset="0.9543" stop-color="#B4F7FD"/>
<stop offset="0.9994" stop-color="#B6FBFF"/>
</linearGradient>
<linearGradient id="paint65_linear_206_27" x1="269.748" y1="815.636" x2="288.058" y2="833.962" gradientUnits="userSpaceOnUse">
<stop stop-color="#83A4D4"/>
<stop offset="0.9543" stop-color="#B4F7FD"/>
<stop offset="0.9994" stop-color="#B6FBFF"/>
</linearGradient>
<linearGradient id="paint66_linear_206_27" x1="261.657" y1="823.72" x2="279.966" y2="842.046" gradientUnits="userSpaceOnUse">
<stop stop-color="#83A4D4"/>
<stop offset="0.9543" stop-color="#B4F7FD"/>
<stop offset="0.9994" stop-color="#B6FBFF"/>
</linearGradient>
<linearGradient id="paint67_linear_206_27" x1="257.73" y1="827.643" x2="276.04" y2="845.969" gradientUnits="userSpaceOnUse">
<stop stop-color="#83A4D4"/>
<stop offset="0.9543" stop-color="#B4F7FD"/>
<stop offset="0.9994" stop-color="#B6FBFF"/>
</linearGradient>
<linearGradient id="paint68_linear_206_27" x1="267.294" y1="818.088" x2="285.604" y2="836.414" gradientUnits="userSpaceOnUse">
<stop stop-color="#83A4D4"/>
<stop offset="0.9543" stop-color="#B4F7FD"/>
<stop offset="0.9994" stop-color="#B6FBFF"/>
</linearGradient>
<linearGradient id="paint69_linear_206_27" x1="384.573" y1="722.15" x2="366.263" y2="740.476" gradientUnits="userSpaceOnUse">
<stop stop-color="#83A4D4"/>
<stop offset="0.9543" stop-color="#B4F7FD"/>
<stop offset="0.9994" stop-color="#B6FBFF"/>
</linearGradient>
<linearGradient id="paint70_linear_206_27" x1="386.757" y1="718.663" x2="367.794" y2="736.312" gradientUnits="userSpaceOnUse">
<stop stop-color="#83A4D4"/>
<stop offset="0.9543" stop-color="#B4F7FD"/>
<stop offset="0.9994" stop-color="#B6FBFF"/>
</linearGradient>
<linearGradient id="paint71_linear_206_27" x1="384" y1="721.579" x2="365.69" y2="739.905" gradientUnits="userSpaceOnUse">
<stop stop-color="#83A4D4"/>
<stop offset="0.9543" stop-color="#B4F7FD"/>
<stop offset="0.9994" stop-color="#B6FBFF"/>
</linearGradient>
<linearGradient id="paint72_linear_206_27" x1="250.31" y1="835.057" x2="268.619" y2="853.382" gradientUnits="userSpaceOnUse">
<stop stop-color="#83A4D4"/>
<stop offset="0.9543" stop-color="#B4F7FD"/>
<stop offset="0.9994" stop-color="#B6FBFF"/>
</linearGradient>
<linearGradient id="paint73_linear_206_27" x1="265.956" y1="819.425" x2="284.266" y2="837.752" gradientUnits="userSpaceOnUse">
<stop stop-color="#83A4D4"/>
<stop offset="0.9543" stop-color="#B4F7FD"/>
<stop offset="0.9994" stop-color="#B6FBFF"/>
</linearGradient>
<linearGradient id="paint74_linear_206_27" x1="260.362" y1="825.013" x2="278.673" y2="843.34" gradientUnits="userSpaceOnUse">
<stop stop-color="#83A4D4"/>
<stop offset="0.9543" stop-color="#B4F7FD"/>
<stop offset="0.9994" stop-color="#B6FBFF"/>
</linearGradient>
<linearGradient id="paint75_linear_206_27" x1="251.423" y1="833.946" x2="269.733" y2="852.272" gradientUnits="userSpaceOnUse">
<stop stop-color="#83A4D4"/>
<stop offset="0.9543" stop-color="#B4F7FD"/>
<stop offset="0.9994" stop-color="#B6FBFF"/>
</linearGradient>
<linearGradient id="paint76_linear_206_27" x1="256.894" y1="827.02" x2="275.944" y2="844.576" gradientUnits="userSpaceOnUse">
<stop stop-color="#83A4D4"/>
<stop offset="0.9543" stop-color="#B4F7FD"/>
<stop offset="0.9994" stop-color="#B6FBFF"/>
</linearGradient>
<linearGradient id="paint77_linear_206_27" x1="261.708" y1="823.668" x2="280.021" y2="841.996" gradientUnits="userSpaceOnUse">
<stop stop-color="#83A4D4"/>
<stop offset="0.9543" stop-color="#B4F7FD"/>
<stop offset="0.9994" stop-color="#B6FBFF"/>
</linearGradient>
<linearGradient id="paint78_linear_206_27" x1="253.478" y1="827.79" x2="270.276" y2="847.509" gradientUnits="userSpaceOnUse">
<stop stop-color="#83A4D4"/>
<stop offset="0.9543" stop-color="#B4F7FD"/>
<stop offset="0.9994" stop-color="#B6FBFF"/>
</linearGradient>
<linearGradient id="paint79_linear_206_27" x1="251.72" y1="836.475" x2="271.314" y2="853.417" gradientUnits="userSpaceOnUse">
<stop stop-color="#83A4D4"/>
<stop offset="0.9543" stop-color="#B4F7FD"/>
<stop offset="0.9994" stop-color="#B6FBFF"/>
</linearGradient>
<linearGradient id="paint80_linear_206_27" x1="261.907" y1="820.346" x2="279.024" y2="839.787" gradientUnits="userSpaceOnUse">
<stop stop-color="#83A4D4"/>
<stop offset="0.9543" stop-color="#B4F7FD"/>
<stop offset="0.9994" stop-color="#B6FBFF"/>
</linearGradient>
<linearGradient id="paint81_linear_206_27" x1="251.282" y1="834.083" x2="269.594" y2="852.411" gradientUnits="userSpaceOnUse">
<stop stop-color="#83A4D4"/>
<stop offset="0.9543" stop-color="#B4F7FD"/>
<stop offset="0.9994" stop-color="#B6FBFF"/>
</linearGradient>
<linearGradient id="paint82_linear_206_27" x1="256.033" y1="831.821" x2="275.466" y2="848.954" gradientUnits="userSpaceOnUse">
<stop stop-color="#83A4D4"/>
<stop offset="0.9543" stop-color="#B4F7FD"/>
<stop offset="0.9994" stop-color="#B6FBFF"/>
</linearGradient>
<linearGradient id="paint83_linear_206_27" x1="260.393" y1="824.983" x2="278.702" y2="843.308" gradientUnits="userSpaceOnUse">
<stop stop-color="#83A4D4"/>
<stop offset="0.9543" stop-color="#B4F7FD"/>
<stop offset="0.9994" stop-color="#B6FBFF"/>
</linearGradient>
<linearGradient id="paint84_linear_206_27" x1="256.855" y1="828.518" x2="275.164" y2="846.844" gradientUnits="userSpaceOnUse">
<stop stop-color="#83A4D4"/>
<stop offset="0.9543" stop-color="#B4F7FD"/>
<stop offset="0.9994" stop-color="#B6FBFF"/>
</linearGradient>
<linearGradient id="paint85_linear_206_27" x1="399.621" y1="809.438" x2="464.823" y2="874.698" gradientUnits="userSpaceOnUse">
<stop stop-color="#83A4D4"/>
<stop offset="0.9543" stop-color="#B4F7FD"/>
<stop offset="0.9994" stop-color="#B6FBFF"/>
</linearGradient>
<linearGradient id="paint86_linear_206_27" x1="217.459" y1="950.688" x2="87.7792" y2="819.616" gradientUnits="userSpaceOnUse">
<stop stop-color="#83A4D4"/>
<stop offset="0.9543" stop-color="#B4F7FD"/>
<stop offset="0.9994" stop-color="#B6FBFF"/>
</linearGradient>
<linearGradient id="paint87_linear_206_27" x1="217.459" y1="950.688" x2="87.7792" y2="819.617" gradientUnits="userSpaceOnUse">
<stop stop-color="#83A4D4"/>
<stop offset="0.9543" stop-color="#B4F7FD"/>
<stop offset="0.9994" stop-color="#B6FBFF"/>
</linearGradient>
<linearGradient id="paint88_linear_206_27" x1="191.763" y1="957.233" x2="192.675" y2="772.934" gradientUnits="userSpaceOnUse">
<stop stop-color="#83A4D4"/>
<stop offset="0.9543" stop-color="#B4F7FD"/>
<stop offset="0.9994" stop-color="#B6FBFF"/>
</linearGradient>
<linearGradient id="paint89_linear_206_27" x1="245.545" y1="914.02" x2="128.431" y2="795.648" gradientUnits="userSpaceOnUse">
<stop stop-color="#83A4D4"/>
<stop offset="0.9543" stop-color="#B4F7FD"/>
<stop offset="0.9994" stop-color="#B6FBFF"/>
</linearGradient>
<linearGradient id="paint90_linear_206_27" x1="254.077" y1="936.927" x2="90.4996" y2="771.59" gradientUnits="userSpaceOnUse">
<stop stop-color="#83A4D4"/>
<stop offset="0.9543" stop-color="#B4F7FD"/>
<stop offset="0.9994" stop-color="#B6FBFF"/>
</linearGradient>
<linearGradient id="paint91_linear_206_27" x1="252.42" y1="951.171" x2="71.3674" y2="768.172" gradientUnits="userSpaceOnUse">
<stop stop-color="#83A4D4"/>
<stop offset="0.9543" stop-color="#B4F7FD"/>
<stop offset="0.9994" stop-color="#B6FBFF"/>
</linearGradient>
<linearGradient id="paint92_linear_206_27" x1="221.08" y1="880.22" x2="207.546" y2="866.541" gradientUnits="userSpaceOnUse">
<stop stop-color="#83A4D4"/>
<stop offset="0.9543" stop-color="#B4F7FD"/>
<stop offset="0.9994" stop-color="#B6FBFF"/>
</linearGradient>
<linearGradient id="paint93_linear_206_27" x1="230.816" y1="894.498" x2="217.284" y2="880.82" gradientUnits="userSpaceOnUse">
<stop stop-color="#83A4D4"/>
<stop offset="0.9543" stop-color="#B4F7FD"/>
<stop offset="0.9994" stop-color="#B6FBFF"/>
</linearGradient>
<linearGradient id="paint94_linear_206_27" x1="240.991" y1="907.917" x2="227.455" y2="894.236" gradientUnits="userSpaceOnUse">
<stop stop-color="#83A4D4"/>
<stop offset="0.9543" stop-color="#B4F7FD"/>
<stop offset="0.9994" stop-color="#B6FBFF"/>
</linearGradient>
<linearGradient id="paint95_linear_206_27" x1="93.7908" y1="829.902" x2="166.164" y2="902.339" gradientUnits="userSpaceOnUse">
<stop stop-color="#83A4D4"/>
<stop offset="0.9543" stop-color="#B4F7FD"/>
<stop offset="0.9994" stop-color="#B6FBFF"/>
</linearGradient>
<linearGradient id="paint96_linear_206_27" x1="289.082" y1="715.92" x2="399.776" y2="826.711" gradientUnits="userSpaceOnUse">
<stop stop-color="#83A4D4"/>
<stop offset="0.9543" stop-color="#B4F7FD"/>
<stop offset="0.9994" stop-color="#B6FBFF"/>
</linearGradient>
<linearGradient id="paint97_linear_206_27" x1="291.972" y1="713.033" x2="402.665" y2="823.824" gradientUnits="userSpaceOnUse">
<stop stop-color="#83A4D4"/>
<stop offset="0.9543" stop-color="#B4F7FD"/>
<stop offset="0.9994" stop-color="#B6FBFF"/>
</linearGradient>
<linearGradient id="paint98_linear_206_27" x1="395.715" y1="805.939" x2="445.339" y2="855.606" gradientUnits="userSpaceOnUse">
<stop stop-color="#83A4D4"/>
<stop offset="0.9543" stop-color="#B4F7FD"/>
<stop offset="0.9994" stop-color="#B6FBFF"/>
</linearGradient>
<linearGradient id="paint99_linear_206_27" x1="40.0988" y1="843.398" x2="92.1393" y2="843.398" gradientUnits="userSpaceOnUse">
<stop stop-color="#83A4D4"/>
<stop offset="0.9543" stop-color="#B4F7FD"/>
<stop offset="0.9994" stop-color="#B6FBFF"/>
</linearGradient>
<linearGradient id="paint100_linear_206_27" x1="45.8511" y1="823.878" x2="90.1793" y2="868.245" gradientUnits="userSpaceOnUse">
<stop stop-color="#83A4D4"/>
<stop offset="0.9543" stop-color="#B4F7FD"/>
<stop offset="0.9994" stop-color="#B6FBFF"/>
</linearGradient>
<linearGradient id="paint101_linear_206_27" x1="332.713" y1="834.783" x2="412.646" y2="834.783" gradientUnits="userSpaceOnUse">
<stop stop-color="#83A4D4"/>
<stop offset="0.9543" stop-color="#B4F7FD"/>
<stop offset="0.9994" stop-color="#B6FBFF"/>
</linearGradient>
<linearGradient id="paint102_linear_206_27" x1="133.348" y1="729.198" x2="200.671" y2="729.198" gradientUnits="userSpaceOnUse">
<stop stop-color="#83A4D4"/>
<stop offset="0.9543" stop-color="#B4F7FD"/>
<stop offset="0.9994" stop-color="#B6FBFF"/>
</linearGradient>
<linearGradient id="paint103_linear_206_27" x1="33.8862" y1="901.411" x2="101.21" y2="901.411" gradientUnits="userSpaceOnUse">
<stop stop-color="#83A4D4"/>
<stop offset="0.9543" stop-color="#B4F7FD"/>
<stop offset="0.9994" stop-color="#B6FBFF"/>
</linearGradient>
<clipPath id="clip0_206_27">
<rect width="430" height="932" fill="white"/>
</clipPath>
</defs>
</svg>
